<?xml version="1.0" encoding="utf-8"?>
<!-- Generator: Adobe Illustrator 22.1.0, SVG Export Plug-In . SVG Version: 6.00 Build 0)  -->
<svg version="1.1" id="Layer_1" xmlns="http://www.w3.org/2000/svg" xmlns:xlink="http://www.w3.org/1999/xlink" x="0px" y="0px"
	 viewBox="0 0 451.8 717.6" style="enable-background:new 0 0 451.8 717.6;" xml:space="preserve">
<style type="text/css">
	.st0{fill:#FFFFFF;stroke:#FE5A5F;stroke-miterlimit:10;}
	.st1{fill:#3BBEB5;}
	.st2{fill:none;stroke:#FFFFFF;stroke-width:0.5;stroke-miterlimit:10;}
	.st3{fill:#FFFFFF;}
	.st4{fill:none;stroke:#3BBEB5;stroke-miterlimit:10;}
	.st5{clip-path:url(#SVGID_2_);}
	.st6{fill:#2EBCB4;}
	.st7{fill:#CCCCCB;}
	.st8{fill:#231F20;}
	.st9{font-family:'HelveticaNeue';}
	.st10{font-size:12.4325px;}
	.st11{opacity:0.5;fill:#FFFFFF;enable-background:new    ;}
	.st12{font-size:8.236px;}
	.st13{fill:none;stroke:#3BBEB5;stroke-width:2;stroke-miterlimit:10;}
	.st14{font-family:'Helvetica';}
	.st15{font-size:16.5498px;}
	.st16{font-size:13.5178px;}
	.st17{fill:#5BC4BC;}
	.st18{fill:#1D897E;}
	.st19{fill:none;stroke:#000000;stroke-linecap:round;stroke-miterlimit:10;}
	.st20{font-size:9.4337px;}
	.st21{fill:#FE5A5F;}
	.st22{enable-background:new    ;}
	.st23{font-size:18.7822px;}
	.st24{font-family:'Helvetica-Bold';}
	.st25{fill:#394046;}
	.st26{opacity:0.5;}
</style>
<path class="st0" d="M448.1,717.1H4.4c-1.8,0-3.2-1.4-3.2-3.2v-63.2c0-1.8,1.4-3.2,3.2-3.2H448c1.8,0,3.2,1.4,3.2,3.2v63.2
	C451.3,715.7,449.8,717.1,448.1,717.1z"/>
<path class="st0" d="M447.3,629.1H3.7c-1.8,0-3.2-1.4-3.2-3.2V448.7c0-1.8,1.4-3.2,3.2-3.2h443.6c1.8,0,3.2,1.4,3.2,3.2v177.2
	C450.5,627.7,449.1,629.1,447.3,629.1z"/>
<path class="st0" d="M448.1,92.2H4.4c-1.8,0-3.2-1.4-3.2-3.2V3.7c0-1.8,1.4-3.2,3.2-3.2H448c1.8,0,3.2,1.4,3.2,3.2v85.2
	C451.3,90.7,449.8,92.2,448.1,92.2z"/>
<path class="st0" d="M448.1,427.1H4.4c-1.8,0-3.2-1.4-3.2-3.2v-95.2c0-1.8,1.4-3.2,3.2-3.2H448c1.8,0,3.2,1.4,3.2,3.2v95.2
	C451.3,425.7,449.8,427.1,448.1,427.1z"/>
<path class="st0" d="M448.2,304.9H4.5c-1.8,0-3.2-1.4-3.2-3.2V115.5c0-1.8,1.4-3.2,3.2-3.2h443.6c1.8,0,3.2,1.4,3.2,3.2v186.2
	C451.4,303.5,449.9,304.9,448.2,304.9z"/>
<g>
	<path class="st1" d="M266.4,22.5H20c-0.9,0-1.7,0.8-1.7,1.7v35.6c0,0.9,0.8,1.7,1.7,1.7h246.4c0.9,0,1.7-0.8,1.7-1.7V24.2
		C268.1,23.2,267.4,22.5,266.4,22.5z"/>
	<g>
		<line class="st2" x1="26.7" y1="35.8" x2="48.9" y2="35.8"/>
		<path class="st2" d="M48.9,38.1"/>
		<path class="st2" d="M26.7,38.1"/>
		<line class="st2" x1="26.7" y1="39.8" x2="48.9" y2="39.8"/>
		<line class="st2" x1="26.7" y1="43.9" x2="48.9" y2="43.9"/>
		<line class="st2" x1="26.7" y1="47.9" x2="48.9" y2="47.9"/>
		<path class="st2" d="M47.2,29.8H28.4c-1.1,0-2,1-2,2.3v18.1c0,1.3,0.9,2.3,2,2.3h18.8c1.1,0,2-1,2-2.3v-18
			C49.2,30.9,48.3,29.8,47.2,29.8z"/>
		<line class="st2" x1="31.1" y1="35.8" x2="31.1" y2="52.6"/>
		<line class="st2" x1="35.6" y1="35.8" x2="35.6" y2="52.6"/>
		<line class="st2" x1="40" y1="35.8" x2="40" y2="52.6"/>
		<line class="st2" x1="44.5" y1="35.8" x2="44.5" y2="52.6"/>
		<path class="st3" d="M46.7,29.8H29c-1.3,0-2.3,1-2.3,2.3v3.4h22.2v-3.4C48.9,30.9,47.9,29.8,46.7,29.8z M31.9,34.6
			c-0.8,0-1.4-0.6-1.4-1.4s0.6-1.4,1.4-1.4c0.8,0,1.4,0.6,1.4,1.4S32.7,34.6,31.9,34.6z M43.7,34.6c-0.8,0-1.4-0.6-1.4-1.4
			s0.6-1.4,1.4-1.4s1.4,0.6,1.4,1.4S44.5,34.6,43.7,34.6z"/>
	</g>
	<g>
		<path class="st3" d="M77.6,36.7c0.8,0,1.4,0.2,1.9,0.5c0.5,0.4,0.9,0.8,1.1,1.3c0.3,0.5,0.5,1.1,0.6,1.8s0.1,1.3,0.1,1.9
			c0,0.6,0,1.2-0.1,1.9s-0.3,1.3-0.6,1.8c-0.3,0.5-0.6,1-1.1,1.3c-0.5,0.4-1.1,0.5-1.9,0.5s-1.4-0.2-1.9-0.5
			c-0.5-0.4-0.9-0.8-1.1-1.3c-0.3-0.5-0.5-1.1-0.6-1.8s-0.1-1.3-0.1-1.9c0-0.6,0-1.2,0.1-1.9s0.3-1.3,0.6-1.8c0.3-0.5,0.6-1,1.1-1.3
			S76.8,36.7,77.6,36.7z M77.6,46.4c0.4,0,0.7-0.1,0.9-0.3c0.3-0.2,0.5-0.5,0.6-0.9s0.3-0.8,0.3-1.3c0.1-0.5,0.1-1,0.1-1.6
			s0-1.1-0.1-1.6s-0.2-0.9-0.3-1.3c-0.1-0.4-0.3-0.7-0.6-0.9s-0.6-0.3-0.9-0.3c-0.4,0-0.7,0.1-1,0.3c-0.2,0.2-0.4,0.5-0.6,0.9
			c-0.1,0.4-0.3,0.8-0.3,1.3c-0.1,0.5-0.1,1-0.1,1.6s0,1.1,0.1,1.6s0.2,0.9,0.3,1.3c0.1,0.4,0.3,0.7,0.6,0.9
			C76.9,46.3,77.2,46.4,77.6,46.4z"/>
		<path class="st3" d="M82.2,38.7c0.4,0,0.7,0,1.1-0.1s0.7-0.2,0.9-0.3c0.3-0.1,0.5-0.3,0.7-0.6c0.2-0.2,0.3-0.5,0.4-0.8h1.4v10.7
			h-1.9V40h-2.6V38.7z"/>
		<path class="st3" d="M93.5,36.5h1.7l-4.4,11.4h-1.7L93.5,36.5z"/>
		<path class="st3" d="M98.6,36.7c0.8,0,1.4,0.2,1.9,0.5c0.5,0.4,0.9,0.8,1.1,1.3c0.3,0.5,0.5,1.1,0.6,1.8s0.1,1.3,0.1,1.9
			c0,0.6,0,1.2-0.1,1.9s-0.3,1.3-0.6,1.8c-0.3,0.5-0.6,1-1.1,1.3c-0.5,0.4-1.1,0.5-1.9,0.5s-1.4-0.2-1.9-0.5
			c-0.5-0.4-0.9-0.8-1.1-1.3c-0.3-0.5-0.5-1.1-0.6-1.8s-0.1-1.3-0.1-1.9c0-0.6,0-1.2,0.1-1.9s0.3-1.3,0.6-1.8c0.3-0.5,0.6-1,1.1-1.3
			S97.9,36.7,98.6,36.7z M98.6,46.4c0.4,0,0.7-0.1,0.9-0.3c0.3-0.2,0.5-0.5,0.6-0.9s0.3-0.8,0.3-1.3c0.1-0.5,0.1-1,0.1-1.6
			s0-1.1-0.1-1.6s-0.2-0.9-0.3-1.3c-0.1-0.4-0.3-0.7-0.6-0.9s-0.6-0.3-0.9-0.3c-0.4,0-0.7,0.1-1,0.3c-0.2,0.2-0.4,0.5-0.6,0.9
			c-0.1,0.4-0.3,0.8-0.3,1.3c-0.1,0.5-0.1,1-0.1,1.6s0,1.1,0.1,1.6s0.2,0.9,0.3,1.3c0.1,0.4,0.3,0.7,0.6,0.9
			C97.9,46.3,98.2,46.4,98.6,46.4z"/>
		<path class="st3" d="M103.2,38.7c0.4,0,0.7,0,1.1-0.1s0.7-0.2,0.9-0.3c0.3-0.1,0.5-0.3,0.7-0.6c0.2-0.2,0.3-0.5,0.4-0.8h1.4v10.7
			h-1.9V40h-2.6V38.7z"/>
		<path class="st3" d="M114.5,36.5h1.7l-4.4,11.4h-1.7L114.5,36.5z"/>
		<path class="st3" d="M123.3,47.7H116c0-0.9,0.2-1.7,0.6-2.3s1-1.2,1.7-1.7c0.3-0.3,0.7-0.5,1.1-0.7s0.7-0.5,1-0.8s0.6-0.6,0.8-0.9
			c0.2-0.3,0.3-0.7,0.3-1.1c0-0.2,0-0.4-0.1-0.6s-0.1-0.4-0.3-0.6c-0.1-0.2-0.3-0.3-0.6-0.5c-0.2-0.1-0.5-0.2-0.9-0.2
			c-0.3,0-0.6,0.1-0.9,0.2s-0.4,0.3-0.6,0.6s-0.2,0.5-0.3,0.8c-0.1,0.3-0.1,0.7-0.1,1.1H116c0-0.6,0.1-1.1,0.2-1.6s0.4-0.9,0.7-1.3
			c0.3-0.4,0.7-0.7,1.2-0.9s1-0.3,1.6-0.3c0.7,0,1.2,0.1,1.6,0.3s0.8,0.5,1.1,0.8c0.3,0.3,0.5,0.7,0.6,1.1c0.1,0.4,0.2,0.7,0.2,1.1
			c0,0.4-0.1,0.8-0.2,1.2s-0.3,0.7-0.5,1s-0.5,0.6-0.8,0.8s-0.6,0.5-0.9,0.7s-0.6,0.4-0.9,0.6c-0.3,0.2-0.6,0.4-0.8,0.6
			c-0.3,0.2-0.5,0.4-0.7,0.6c-0.2,0.2-0.3,0.4-0.4,0.7h5.2v1.3H123.3z"/>
		<path class="st3" d="M127.7,36.7c0.8,0,1.4,0.2,1.9,0.5c0.5,0.4,0.9,0.8,1.1,1.3c0.3,0.5,0.5,1.1,0.6,1.8s0.1,1.3,0.1,1.9
			c0,0.6,0,1.2-0.1,1.9s-0.3,1.3-0.6,1.8s-0.6,1-1.1,1.3c-0.5,0.4-1.1,0.5-1.9,0.5c-0.8,0-1.4-0.2-1.9-0.5c-0.5-0.4-0.9-0.8-1.1-1.3
			c-0.3-0.5-0.5-1.1-0.6-1.8s-0.1-1.3-0.1-1.9c0-0.6,0-1.2,0.1-1.9s0.3-1.3,0.6-1.8c0.3-0.5,0.6-1,1.1-1.3
			C126.3,36.9,126.9,36.7,127.7,36.7z M127.7,46.4c0.4,0,0.7-0.1,0.9-0.3c0.3-0.2,0.5-0.5,0.6-0.9s0.3-0.8,0.3-1.3
			c0.1-0.5,0.1-1,0.1-1.6s0-1.1-0.1-1.6s-0.2-0.9-0.3-1.3c-0.1-0.4-0.3-0.7-0.6-0.9s-0.6-0.3-0.9-0.3c-0.4,0-0.7,0.1-1,0.3
			s-0.4,0.5-0.6,0.9c-0.1,0.4-0.3,0.8-0.3,1.3c-0.1,0.5-0.1,1-0.1,1.6s0,1.1,0.1,1.6s0.2,0.9,0.3,1.3c0.1,0.4,0.3,0.7,0.6,0.9
			C127,46.3,127.3,46.4,127.7,46.4z"/>
		<path class="st3" d="M132.3,38.7c0.4,0,0.7,0,1.1-0.1s0.7-0.2,0.9-0.3c0.3-0.1,0.5-0.3,0.7-0.6c0.2-0.2,0.3-0.5,0.4-0.8h1.4v10.7
			h-1.9V40h-2.6L132.3,38.7L132.3,38.7z"/>
		<path class="st3" d="M142,45c0,0.4,0.2,0.8,0.5,1.1s0.6,0.4,1.1,0.4s0.8-0.1,1.1-0.4s0.5-0.6,0.7-0.9c0.2-0.4,0.3-0.8,0.3-1.2
			c0.1-0.4,0.1-0.8,0.1-1.2l0,0c-0.2,0.4-0.6,0.7-1,1c-0.4,0.2-0.9,0.3-1.3,0.3c-0.5,0-1-0.1-1.4-0.3s-0.8-0.4-1.1-0.7
			s-0.5-0.7-0.7-1.1s-0.2-0.9-0.2-1.5c0-0.5,0.1-1,0.2-1.4c0.2-0.4,0.4-0.8,0.7-1.2c0.3-0.3,0.7-0.6,1.2-0.8s1-0.3,1.6-0.3
			c0.8,0,1.4,0.1,1.9,0.4c0.5,0.3,0.9,0.7,1.2,1.2s0.5,1.1,0.6,1.8s0.2,1.4,0.2,2.2c0,0.6-0.1,1.3-0.2,1.9s-0.4,1.2-0.7,1.8
			c-0.3,0.5-0.7,1-1.2,1.3s-1.2,0.5-1.9,0.5c-0.4,0-0.8-0.1-1.2-0.2c-0.4-0.1-0.7-0.3-1-0.6s-0.5-0.6-0.7-0.9s-0.3-0.8-0.3-1.2
			C140.5,45,142,45,142,45z M143.7,38.2c-0.3,0-0.6,0.1-0.8,0.2s-0.4,0.3-0.6,0.5s-0.3,0.4-0.3,0.7c-0.1,0.3-0.1,0.5-0.1,0.8
			s0,0.6,0.1,0.8c0.1,0.3,0.2,0.5,0.3,0.7c0.2,0.2,0.3,0.4,0.6,0.5s0.5,0.2,0.8,0.2s0.6-0.1,0.9-0.2c0.2-0.1,0.4-0.3,0.6-0.5
			c0.2-0.2,0.3-0.4,0.4-0.7c0.1-0.3,0.1-0.6,0.1-0.8c0-0.3,0-0.6-0.1-0.8c-0.1-0.3-0.2-0.5-0.4-0.7s-0.4-0.4-0.6-0.5
			C144.3,38.3,144,38.2,143.7,38.2z"/>
		<path class="st3" d="M152.1,42.7h6.5v1.7h-6.5V42.7z"/>
		<path class="st3" d="M167.9,36.7c0.8,0,1.4,0.2,1.9,0.5c0.5,0.4,0.9,0.8,1.1,1.3c0.3,0.5,0.5,1.1,0.6,1.8s0.1,1.3,0.1,1.9
			c0,0.6,0,1.2-0.1,1.9s-0.3,1.3-0.6,1.8s-0.6,1-1.1,1.3c-0.5,0.4-1.1,0.5-1.9,0.5c-0.8,0-1.4-0.2-1.9-0.5c-0.5-0.4-0.9-0.8-1.1-1.3
			c-0.3-0.5-0.5-1.1-0.6-1.8s-0.1-1.3-0.1-1.9c0-0.6,0-1.2,0.1-1.9s0.3-1.3,0.6-1.8s0.6-1,1.1-1.3S167.2,36.7,167.9,36.7z
			 M167.9,46.4c0.4,0,0.7-0.1,0.9-0.3c0.3-0.2,0.5-0.5,0.6-0.9s0.3-0.8,0.3-1.3c0.1-0.5,0.1-1,0.1-1.6s0-1.1-0.1-1.6
			s-0.2-0.9-0.3-1.3c-0.1-0.4-0.3-0.7-0.6-0.9s-0.6-0.3-0.9-0.3c-0.4,0-0.7,0.1-1,0.3s-0.4,0.5-0.6,0.9c-0.1,0.4-0.3,0.8-0.3,1.3
			c-0.1,0.5-0.1,1-0.1,1.6s0,1.1,0.1,1.6s0.2,0.9,0.3,1.3c0.1,0.4,0.3,0.7,0.6,0.9C167.2,46.3,167.5,46.4,167.9,46.4z"/>
		<path class="st3" d="M173.6,37h5.5v1.6h-4.2l-0.6,2.7l0,0c0.2-0.3,0.5-0.5,0.9-0.6s0.7-0.2,1.1-0.2c0.5,0,1,0.1,1.4,0.3
			s0.8,0.4,1.1,0.8c0.3,0.3,0.5,0.7,0.6,1.1c0.1,0.4,0.2,0.9,0.2,1.4c0,0.4-0.1,0.9-0.2,1.3c-0.1,0.5-0.4,0.9-0.7,1.2
			c-0.3,0.4-0.7,0.7-1.2,0.9s-1,0.4-1.7,0.4c-0.5,0-1-0.1-1.4-0.2c-0.4-0.1-0.8-0.3-1.2-0.6c-0.3-0.3-0.6-0.6-0.8-1
			s-0.3-0.9-0.3-1.4h1.7c0.1,0.6,0.2,1,0.6,1.3c0.3,0.3,0.8,0.5,1.4,0.5c0.4,0,0.7-0.1,0.9-0.2c0.3-0.1,0.5-0.3,0.6-0.5
			c0.2-0.2,0.3-0.5,0.3-0.8c0.1-0.3,0.1-0.6,0.1-0.9c0-0.3,0-0.6-0.1-0.8c-0.1-0.3-0.2-0.5-0.4-0.7s-0.4-0.4-0.6-0.5
			s-0.6-0.2-0.9-0.2c-0.4,0-0.7,0.1-1,0.2s-0.6,0.4-0.7,0.8h-1.7L173.6,37z"/>
		<path class="st3" d="M183.8,36.5h1.7l-4.4,11.4h-1.7L183.8,36.5z"/>
		<path class="st3" d="M185.5,38.7c0.4,0,0.7,0,1.1-0.1s0.7-0.2,0.9-0.3c0.3-0.1,0.5-0.3,0.7-0.6c0.2-0.2,0.3-0.5,0.4-0.8h1.4v10.7
			h-1.9V40h-2.6L185.5,38.7L185.5,38.7z"/>
		<path class="st3" d="M193.5,38.7c0.4,0,0.7,0,1.1-0.1s0.7-0.2,0.9-0.3c0.3-0.1,0.5-0.3,0.7-0.6c0.2-0.2,0.3-0.5,0.4-0.8h1.4v10.7
			h-1.9V40h-2.6L193.5,38.7L193.5,38.7z"/>
		<path class="st3" d="M204.8,36.5h1.7l-4.4,11.4h-1.7L204.8,36.5z"/>
		<path class="st3" d="M213.6,47.7h-7.3c0-0.9,0.2-1.7,0.6-2.3s1-1.2,1.7-1.7c0.3-0.3,0.7-0.5,1.1-0.7c0.4-0.2,0.7-0.5,1-0.8
			s0.6-0.6,0.8-0.9s0.3-0.7,0.3-1.1c0-0.2,0-0.4-0.1-0.6s-0.1-0.4-0.3-0.6c-0.1-0.2-0.3-0.3-0.6-0.5s-0.5-0.2-0.9-0.2
			c-0.3,0-0.6,0.1-0.9,0.2s-0.4,0.3-0.6,0.6s-0.2,0.5-0.3,0.8S208,40.6,208,41h-1.7c0-0.6,0.1-1.1,0.2-1.6c0.2-0.5,0.4-0.9,0.7-1.3
			s0.7-0.7,1.2-0.9s1-0.3,1.6-0.3c0.7,0,1.2,0.1,1.6,0.3c0.4,0.2,0.8,0.5,1.1,0.8s0.5,0.7,0.6,1.1c0.1,0.4,0.2,0.7,0.2,1.1
			c0,0.4-0.1,0.8-0.2,1.2s-0.3,0.7-0.5,1s-0.5,0.6-0.8,0.8s-0.6,0.5-0.9,0.7c-0.3,0.2-0.6,0.4-0.9,0.6c-0.3,0.2-0.6,0.4-0.8,0.6
			s-0.5,0.4-0.7,0.6c-0.2,0.2-0.3,0.4-0.4,0.7h5.2L213.6,47.7L213.6,47.7z"/>
		<path class="st3" d="M218,36.7c0.8,0,1.4,0.2,1.9,0.5c0.5,0.4,0.9,0.8,1.1,1.3c0.3,0.5,0.5,1.1,0.6,1.8s0.1,1.3,0.1,1.9
			c0,0.6,0,1.2-0.1,1.9s-0.3,1.3-0.6,1.8s-0.6,1-1.1,1.3c-0.5,0.4-1.1,0.5-1.9,0.5c-0.8,0-1.4-0.2-1.9-0.5c-0.5-0.4-0.9-0.8-1.1-1.3
			c-0.3-0.5-0.5-1.1-0.6-1.8s-0.1-1.3-0.1-1.9c0-0.6,0-1.2,0.1-1.9s0.3-1.3,0.6-1.8s0.6-1,1.1-1.3S217.2,36.7,218,36.7z M218,46.4
			c0.4,0,0.7-0.1,0.9-0.3c0.3-0.2,0.5-0.5,0.6-0.9s0.3-0.8,0.3-1.3c0.1-0.5,0.1-1,0.1-1.6s0-1.1-0.1-1.6s-0.2-0.9-0.3-1.3
			c-0.1-0.4-0.3-0.7-0.6-0.9s-0.6-0.3-0.9-0.3c-0.4,0-0.7,0.1-1,0.3s-0.4,0.5-0.6,0.9c-0.1,0.4-0.3,0.8-0.3,1.3
			c-0.1,0.5-0.1,1-0.1,1.6s0,1.1,0.1,1.6s0.2,0.9,0.3,1.3c0.1,0.4,0.3,0.7,0.6,0.9C217.3,46.3,217.6,46.4,218,46.4z"/>
		<path class="st3" d="M222.6,38.7c0.4,0,0.7,0,1.1-0.1s0.7-0.2,0.9-0.3c0.3-0.1,0.5-0.3,0.7-0.6c0.2-0.2,0.3-0.5,0.4-0.8h1.4v10.7
			h-1.9V40h-2.6L222.6,38.7L222.6,38.7z"/>
		<path class="st3" d="M232.3,45c0,0.4,0.2,0.8,0.5,1.1s0.6,0.4,1.1,0.4s0.8-0.1,1.1-0.4s0.5-0.6,0.7-0.9c0.2-0.4,0.3-0.8,0.3-1.2
			c0.1-0.4,0.1-0.8,0.1-1.2l0,0c-0.2,0.4-0.6,0.7-1,1c-0.4,0.2-0.9,0.3-1.3,0.3c-0.5,0-1-0.1-1.4-0.3s-0.8-0.4-1.1-0.7
			s-0.5-0.7-0.7-1.1s-0.2-0.9-0.2-1.5c0-0.5,0.1-1,0.2-1.4c0.2-0.4,0.4-0.8,0.7-1.2c0.3-0.3,0.7-0.6,1.2-0.8s1-0.3,1.6-0.3
			c0.8,0,1.4,0.1,1.9,0.4c0.5,0.3,0.9,0.7,1.2,1.2s0.5,1.1,0.6,1.8s0.2,1.4,0.2,2.2c0,0.6-0.1,1.3-0.2,1.9s-0.4,1.2-0.7,1.8
			c-0.3,0.5-0.7,1-1.2,1.3s-1.2,0.5-1.9,0.5c-0.4,0-0.8-0.1-1.2-0.2c-0.4-0.1-0.7-0.3-1-0.6s-0.5-0.6-0.7-0.9s-0.3-0.8-0.3-1.2
			C230.8,45,232.3,45,232.3,45z M234,38.2c-0.3,0-0.6,0.1-0.8,0.2s-0.4,0.3-0.6,0.5s-0.3,0.4-0.3,0.7c-0.1,0.3-0.1,0.5-0.1,0.8
			s0,0.6,0.1,0.8c0.1,0.3,0.2,0.5,0.3,0.7c0.2,0.2,0.3,0.4,0.6,0.5s0.5,0.2,0.8,0.2s0.6-0.1,0.9-0.2c0.2-0.1,0.4-0.3,0.6-0.5
			c0.2-0.2,0.3-0.4,0.4-0.7c0.1-0.3,0.1-0.6,0.1-0.8c0-0.3,0-0.6-0.1-0.8c-0.1-0.3-0.2-0.5-0.4-0.7s-0.4-0.4-0.6-0.5
			C234.6,38.3,234.3,38.2,234,38.2z"/>
	</g>
</g>
<g>
	<rect x="40.9" y="651.6" class="st3" width="244.2" height="22"/>
	<rect x="40.3" y="651.6" class="st4" width="244.9" height="22.5"/>
	<g>
		<g>
			<defs>
				<rect id="SVGID_1_" x="40.3" y="651.6" width="111.1" height="22.5"/>
			</defs>
			<clipPath id="SVGID_2_">
				<use xlink:href="#SVGID_1_"  style="overflow:visible;"/>
			</clipPath>
			<g class="st5">
				<polyline class="st6" points="27.1,674.9 61.8,650.9 79.2,650.9 44.4,674.9 				"/>
				<polyline class="st6" points="64,674.9 98.8,650.9 116.1,650.9 81.4,674.9 				"/>
				<polyline class="st6" points="101,674.9 135.7,650.9 153.1,650.9 118.4,674.9 				"/>
				<polyline class="st6" points="138,674.9 172.7,650.9 190.1,650.9 155.3,674.9 				"/>
			</g>
		</g>
	</g>
</g>
<g>
	<g>
		<polygon class="st7" points="272.5,360 18.3,360 18.3,346.5 272.5,346.5 285.9,353.3 		"/>
		<line class="st2" x1="18.3" y1="360" x2="18.3" y2="346.6"/>
		<line class="st2" x1="31.7" y1="360" x2="31.7" y2="346.6"/>
		<line class="st2" x1="45" y1="360" x2="45" y2="346.6"/>
		<line class="st2" x1="58.4" y1="360" x2="58.4" y2="346.6"/>
		<line class="st2" x1="71.8" y1="360" x2="71.8" y2="346.6"/>
		<line class="st2" x1="85.2" y1="360" x2="85.2" y2="346.6"/>
		<line class="st2" x1="98.6" y1="360" x2="98.6" y2="346.6"/>
		<line class="st2" x1="112" y1="360" x2="112" y2="346.6"/>
		<line class="st2" x1="125.3" y1="360" x2="125.3" y2="346.6"/>
		<line class="st2" x1="138.7" y1="360" x2="138.7" y2="346.6"/>
		<line class="st2" x1="152.1" y1="360" x2="152.1" y2="346.6"/>
		<line class="st2" x1="165.5" y1="360" x2="165.5" y2="346.6"/>
		<line class="st2" x1="178.9" y1="360" x2="178.9" y2="346.6"/>
		<line class="st2" x1="192.2" y1="360" x2="192.2" y2="346.6"/>
		<line class="st2" x1="205.6" y1="360" x2="205.6" y2="346.6"/>
		<line class="st2" x1="219" y1="360" x2="219" y2="346.6"/>
		<line class="st2" x1="232.4" y1="360" x2="232.4" y2="346.6"/>
		<line class="st2" x1="245.8" y1="360" x2="245.8" y2="346.6"/>
		<line class="st2" x1="259.1" y1="360" x2="259.1" y2="346.6"/>
		<line class="st2" x1="272.5" y1="360" x2="272.5" y2="346.6"/>
	</g>
	<path class="st7" d="M285.9,353.3"/>
</g>
<g>
	<g>
		<polygon class="st7" points="272.5,375 18.3,375 18.3,361.5 272.5,361.5 285.9,368.2 		"/>
		<line class="st2" x1="18.3" y1="375" x2="18.3" y2="361.6"/>
		<line class="st2" x1="31.7" y1="375" x2="31.7" y2="361.6"/>
		<line class="st2" x1="45" y1="375" x2="45" y2="361.6"/>
		<line class="st2" x1="58.4" y1="375" x2="58.4" y2="361.6"/>
		<line class="st2" x1="71.8" y1="375" x2="71.8" y2="361.6"/>
		<line class="st2" x1="85.2" y1="375" x2="85.2" y2="361.6"/>
		<line class="st2" x1="98.6" y1="375" x2="98.6" y2="361.6"/>
		<line class="st2" x1="112" y1="375" x2="112" y2="361.6"/>
		<line class="st2" x1="125.3" y1="375" x2="125.3" y2="361.6"/>
		<line class="st2" x1="138.7" y1="375" x2="138.7" y2="361.6"/>
		<line class="st2" x1="152.1" y1="375" x2="152.1" y2="361.6"/>
		<line class="st2" x1="165.5" y1="375" x2="165.5" y2="361.6"/>
		<line class="st2" x1="178.9" y1="375" x2="178.9" y2="361.6"/>
		<line class="st2" x1="192.2" y1="375" x2="192.2" y2="361.6"/>
		<line class="st2" x1="205.6" y1="375" x2="205.6" y2="361.6"/>
		<line class="st2" x1="219" y1="375" x2="219" y2="361.6"/>
		<line class="st2" x1="232.4" y1="375" x2="232.4" y2="361.6"/>
		<line class="st2" x1="245.8" y1="375" x2="245.8" y2="361.6"/>
		<line class="st2" x1="259.1" y1="375" x2="259.1" y2="361.6"/>
		<line class="st2" x1="272.5" y1="375" x2="272.5" y2="361.6"/>
	</g>
	<path class="st7" d="M285.9,368.2"/>
</g>
<g>
	<g>
		<polygon class="st7" points="272.5,390 18.3,390 18.3,376.4 272.5,376.4 285.9,383.2 		"/>
		<line class="st2" x1="18.3" y1="390" x2="18.3" y2="376.6"/>
		<line class="st2" x1="31.7" y1="390" x2="31.7" y2="376.6"/>
		<line class="st2" x1="45" y1="390" x2="45" y2="376.6"/>
		<line class="st2" x1="58.4" y1="390" x2="58.4" y2="376.6"/>
		<line class="st2" x1="71.8" y1="390" x2="71.8" y2="376.6"/>
		<line class="st2" x1="85.2" y1="390" x2="85.2" y2="376.6"/>
		<line class="st2" x1="98.6" y1="390" x2="98.6" y2="376.6"/>
		<line class="st2" x1="112" y1="390" x2="112" y2="376.6"/>
		<line class="st2" x1="125.3" y1="390" x2="125.3" y2="376.6"/>
		<line class="st2" x1="138.7" y1="390" x2="138.7" y2="376.6"/>
		<line class="st2" x1="152.1" y1="390" x2="152.1" y2="376.6"/>
		<line class="st2" x1="165.5" y1="390" x2="165.5" y2="376.6"/>
		<line class="st2" x1="178.9" y1="390" x2="178.9" y2="376.6"/>
		<line class="st2" x1="192.2" y1="390" x2="192.2" y2="376.6"/>
		<line class="st2" x1="205.6" y1="390" x2="205.6" y2="376.6"/>
		<line class="st2" x1="219" y1="390" x2="219" y2="376.6"/>
		<line class="st2" x1="232.4" y1="390" x2="232.4" y2="376.6"/>
		<line class="st2" x1="245.8" y1="390" x2="245.8" y2="376.6"/>
		<line class="st2" x1="259.1" y1="390" x2="259.1" y2="376.6"/>
		<line class="st2" x1="272.5" y1="390" x2="272.5" y2="376.6"/>
	</g>
	<path class="st7" d="M285.9,383.2"/>
</g>
<g>
	<line class="st2" x1="31.7" y1="360" x2="31.7" y2="346.6"/>
	<line class="st2" x1="45.1" y1="360" x2="45.1" y2="346.6"/>
	<line class="st2" x1="58.5" y1="360" x2="58.5" y2="346.6"/>
	<line class="st2" x1="71.8" y1="360" x2="71.8" y2="346.6"/>
	<line class="st2" x1="85.2" y1="360" x2="85.2" y2="346.6"/>
	<line class="st2" x1="98.6" y1="360" x2="98.6" y2="346.6"/>
	<line class="st2" x1="112" y1="360" x2="112" y2="346.6"/>
	<line class="st2" x1="125.4" y1="360" x2="125.4" y2="346.6"/>
	<line class="st2" x1="138.7" y1="360" x2="138.7" y2="346.6"/>
	<line class="st2" x1="152.1" y1="360" x2="152.1" y2="346.6"/>
	<line class="st2" x1="165.5" y1="360" x2="165.5" y2="346.6"/>
	<line class="st2" x1="178.9" y1="360" x2="178.9" y2="346.6"/>
	<line class="st2" x1="192.3" y1="360" x2="192.3" y2="346.6"/>
	<line class="st2" x1="205.7" y1="360" x2="205.7" y2="346.6"/>
	<line class="st2" x1="219" y1="360" x2="219" y2="346.6"/>
	<line class="st2" x1="232.4" y1="360" x2="232.4" y2="346.6"/>
	<line class="st2" x1="245.8" y1="360" x2="245.8" y2="346.6"/>
	<line class="st2" x1="259.2" y1="360" x2="259.2" y2="346.6"/>
	<line class="st2" x1="272.6" y1="360" x2="272.6" y2="346.6"/>
</g>
<g>
	<line class="st2" x1="31.7" y1="375" x2="31.7" y2="361.6"/>
	<line class="st2" x1="45.1" y1="375" x2="45.1" y2="361.6"/>
	<line class="st2" x1="58.5" y1="375" x2="58.5" y2="361.6"/>
	<line class="st2" x1="71.8" y1="375" x2="71.8" y2="361.6"/>
	<line class="st2" x1="85.2" y1="375" x2="85.2" y2="361.6"/>
	<line class="st2" x1="98.6" y1="375" x2="98.6" y2="361.6"/>
	<line class="st2" x1="112" y1="375" x2="112" y2="361.6"/>
	<line class="st2" x1="125.4" y1="375" x2="125.4" y2="361.6"/>
	<line class="st2" x1="138.7" y1="375" x2="138.7" y2="361.6"/>
	<line class="st2" x1="152.1" y1="375" x2="152.1" y2="361.6"/>
	<line class="st2" x1="165.5" y1="375" x2="165.5" y2="361.6"/>
	<line class="st2" x1="178.9" y1="375" x2="178.9" y2="361.6"/>
	<line class="st2" x1="192.3" y1="375" x2="192.3" y2="361.6"/>
	<line class="st2" x1="205.7" y1="375" x2="205.7" y2="361.6"/>
	<line class="st2" x1="219" y1="375" x2="219" y2="361.6"/>
	<line class="st2" x1="232.4" y1="375" x2="232.4" y2="361.6"/>
	<line class="st2" x1="245.8" y1="375" x2="245.8" y2="361.6"/>
	<line class="st2" x1="259.2" y1="375" x2="259.2" y2="361.6"/>
	<line class="st2" x1="272.6" y1="375" x2="272.6" y2="361.6"/>
</g>
<g>
	<line class="st2" x1="31.7" y1="390" x2="31.7" y2="376.6"/>
	<line class="st2" x1="45.1" y1="390" x2="45.1" y2="376.6"/>
	<line class="st2" x1="58.5" y1="390" x2="58.5" y2="376.6"/>
	<line class="st2" x1="71.8" y1="390" x2="71.8" y2="376.6"/>
	<line class="st2" x1="85.2" y1="390" x2="85.2" y2="376.6"/>
	<line class="st2" x1="98.6" y1="390" x2="98.6" y2="376.6"/>
	<line class="st2" x1="112" y1="390" x2="112" y2="376.6"/>
	<line class="st2" x1="125.4" y1="390" x2="125.4" y2="376.6"/>
	<line class="st2" x1="138.7" y1="390" x2="138.7" y2="376.6"/>
	<line class="st2" x1="152.1" y1="390" x2="152.1" y2="376.6"/>
	<line class="st2" x1="165.5" y1="390" x2="165.5" y2="376.6"/>
	<line class="st2" x1="178.9" y1="390" x2="178.9" y2="376.6"/>
	<line class="st2" x1="192.3" y1="390" x2="192.3" y2="376.6"/>
	<line class="st2" x1="205.7" y1="390" x2="205.7" y2="376.6"/>
	<line class="st2" x1="219" y1="390" x2="219" y2="376.6"/>
	<line class="st2" x1="232.4" y1="390" x2="232.4" y2="376.6"/>
	<line class="st2" x1="245.8" y1="390" x2="245.8" y2="376.6"/>
	<line class="st2" x1="259.2" y1="390" x2="259.2" y2="376.6"/>
	<line class="st2" x1="272.6" y1="390" x2="272.6" y2="376.6"/>
</g>
<text transform="matrix(1 0 0 1 18.3177 344.0379)" class="st8 st9 st10">BIG BASIN STATE PARK</text>
<rect x="18.3" y="361.5" class="st11" width="174" height="13.5"/>
<text transform="matrix(1 0 0 1 23.2591 370.8133)" class="st8 st9 st12">Sempervirens Campground (sites 157-188)</text>
<path class="st13" d="M334.7,177.3H20.5c-1.2,0-2.2-1-2.2-2.2v-53.5c0-1.2,1-2.2,2.2-2.2h314.2c1.2,0,2.2,1,2.2,2.2v53.5
	C336.9,176.3,335.9,177.3,334.7,177.3z"/>
<path class="st1" d="M53.4,177.3h-33c-1.1,0-2-0.9-2-2v-53.9c0-1.1,0.9-2,2-2h33.1L53.4,177.3L53.4,177.3z"/>
<text transform="matrix(1 0 0 1 60.9653 140.8287)" class="st8 st14 st15">Big Basin</text>
<text transform="matrix(1 0 0 1 322.3139 141.8043)" class="st8 st14 st16">8</text>
<text transform="matrix(1 0 0 1 322.3139 165.5162)" class="st8 st14 st16">2</text>
<g>
	<path class="st3" d="M33.9,156.1c-0.5,0-1-0.2-1.4-0.5l-5.3-4.9c-0.8-0.8-0.9-2.1-0.1-2.9c0.8-0.8,2.1-0.9,2.9-0.1l3.8,3.5l8.6-9.3
		c0.8-0.8,2.1-0.9,2.9-0.1c0.8,0.8,0.9,2.1,0.1,2.9l-10,10.8C35,155.9,34.4,156.1,33.9,156.1z"/>
</g>
<rect x="18.8" y="486.9" class="st7" width="400" height="20.2"/>
<g>
	<path class="st17" d="M188.8,507.1h-160c-5.5,0-10-4.5-10-10l0,0c0-5.5,4.5-10,10-10h160c5.5,0,10,4.5,10,10l0,0
		C198.8,502.6,194.3,507.1,188.8,507.1z"/>
	<path class="st18" d="M188.8,507.1h-10v-20h10c5.5,0,10,4.5,10,10l0,0C198.8,502.6,194.3,507.1,188.8,507.1z"/>
	<path class="st18" d="M208.8,507.1L208.8,507.1c-5.5,0-10-4.5-10-10l0,0c0-5.5,4.5-10,10-10l0,0c5.5,0,10,4.5,10,10l0,0
		C218.8,502.6,214.3,507.1,208.8,507.1z"/>
	<path class="st17" d="M308.8,507.1h-60c-5.5,0-10-4.5-10-10l0,0c0-5.5,4.5-10,10-10h60c5.5,0,10,4.5,10,10l0,0
		C318.8,502.6,314.3,507.1,308.8,507.1z"/>
	<path class="st18" d="M338.8,506.9l-10,0.2c-5.5,0-10-4.5-10-10l0,0c0-5.5,4.5-10,10-10l10-0.2V506.9z"/>
	<rect x="338.8" y="486.9" class="st18" width="20" height="20"/>
	<rect x="358.8" y="486.9" class="st17" width="20" height="20"/>
	<rect x="378.8" y="486.9" class="st17" width="20" height="20"/>
	<rect x="398.8" y="486.9" class="st17" width="20" height="20"/>
	<rect x="58.8" y="487.1" class="st18" width="20" height="20"/>
	<rect x="38.8" y="487.1" class="st18" width="20" height="20"/>
	<line class="st2" x1="38.8" y1="507.1" x2="38.8" y2="487.1"/>
	<line class="st2" x1="58.8" y1="507.1" x2="58.8" y2="487.1"/>
	<line class="st2" x1="78.8" y1="507.1" x2="78.8" y2="487.1"/>
	<line class="st2" x1="98.8" y1="507.1" x2="98.8" y2="487.1"/>
	<line class="st2" x1="118.8" y1="507.1" x2="118.8" y2="487.1"/>
	<line class="st2" x1="138.8" y1="507.1" x2="138.8" y2="487.1"/>
	<line class="st2" x1="158.8" y1="507.1" x2="158.8" y2="487.1"/>
	<line class="st2" x1="178.8" y1="507.1" x2="178.8" y2="487.1"/>
	<line class="st2" x1="198.8" y1="507.1" x2="198.8" y2="487.1"/>
	<line class="st2" x1="218.8" y1="507.1" x2="218.8" y2="487.1"/>
	<line class="st2" x1="238.8" y1="507.1" x2="238.8" y2="487.1"/>
	<line class="st2" x1="258.8" y1="507.1" x2="258.8" y2="487.1"/>
	<line class="st2" x1="278.8" y1="507.1" x2="278.8" y2="487.1"/>
	<line class="st2" x1="298.8" y1="507.1" x2="298.8" y2="487.1"/>
	<line class="st2" x1="318.8" y1="507.1" x2="318.8" y2="487.1"/>
	<line class="st2" x1="338.8" y1="507.1" x2="338.8" y2="487.1"/>
	<line class="st2" x1="358.8" y1="507.1" x2="358.8" y2="487.1"/>
	<line class="st2" x1="378.8" y1="507.1" x2="378.8" y2="487.1"/>
	<line class="st2" x1="398.8" y1="507.1" x2="398.8" y2="487.1"/>
	<line class="st2" x1="418.8" y1="507.1" x2="418.8" y2="487.1"/>
</g>
<path class="st19" d="M198.8,481.8L198.8,481.8c0-4.6-3.8-8.4-8.4-8.4H27.2c-4.6,0-8.4,3.8-8.4,8.4l0,0"/>
<path class="st19" d="M318.8,481.8L318.8,481.8c0-4.6-3.8-8.4-8.4-8.4h-63.2c-4.6,0-8.4,3.8-8.4,8.4l0,0"/>
<path class="st19" d="M218.8,510.2L218.8,510.2c0,4.6-3.8,8.4-8.4,8.4h-23.2c-4.6,0-8.4-3.8-8.4-8.4l0,0"/>
<path class="st19" d="M418.8,473.4h-91.6c-4.6,0-8.4,3.8-8.4,8.4l0,0"/>
<text transform="matrix(1 0 0 1 32.9539 548.3174)" class="st8 st14 st20">Dark green notes a weekend day with availability </text>
<text transform="matrix(1 0 0 1 346.6926 548.3174)" class="st8 st14 st20">Click on any day with</text>
<text transform="matrix(1 0 0 1 346.6926 559.6174)" class="st8 st14 st20">availability to go to the </text>
<text transform="matrix(1 0 0 1 346.6926 570.9174)" class="st8 st14 st20">reserve page</text>
<text transform="matrix(1 0 0 1 32.9539 577.0681)" class="st8 st14 st20">All these days have availability all at the same campsite</text>
<text transform="matrix(1 0 0 1 32.9542 605.9183)" class="st8 st14 st20">Friday &amp; Saturday have availability but not in the same campsite</text>
<text transform="matrix(1 0 0 1 32.9542 617.2183)" class="st8 st14 st20">so you would need to move your tent on Saturday morning</text>
<g>
	<path class="st21" d="M25.8,224.7L25.8,224.7c-3.6,0-6.6-2.9-6.6-6.6l0,0c0-3.6,2.9-6.6,6.6-6.6l0,0c3.6,0,6.6,2.9,6.6,6.6l0,0
		C32.4,221.8,29.5,224.7,25.8,224.7z"/>
	<g class="st22">
		<path class="st3" d="M25.2,213.8h1.2l2.9,7.9h-1.2l-0.8-2.4h-3.1l-0.9,2.4h-1.1L25.2,213.8z M27,218.5l-1.2-3.5l-1.3,3.5H27z"/>
	</g>
</g>
<g>
	<path class="st21" d="M74.4,183.9L74.4,183.9c-3.6,0-6.6-2.9-6.6-6.6l0,0c0-3.6,2.9-6.6,6.6-6.6l0,0c3.6,0,6.6,2.9,6.6,6.6l0,0
		C81,181,78.1,183.9,74.4,183.9z"/>
	<g class="st22">
		<path class="st3" d="M73.8,173h1.2l2.9,7.9h-1.2l-0.8-2.4h-3.1L72,181h-1.1L73.8,173z M75.6,177.7l-1.2-3.5l-1.3,3.5H75.6z"/>
	</g>
</g>
<g>
	<path class="st21" d="M48.8,503.6L48.8,503.6c-3.6,0-6.6-2.9-6.6-6.6l0,0c0-3.6,2.9-6.6,6.6-6.6l0,0c3.6,0,6.6,2.9,6.6,6.6l0,0
		C55.4,500.7,52.5,503.6,48.8,503.6z"/>
	<g class="st22">
		<path class="st3" d="M48.2,492.7h1.2l2.9,7.9h-1.2l-0.8-2.4h-3.1l-0.9,2.4h-1.1L48.2,492.7z M50,497.4l-1.2-3.5l-1.3,3.5H50z"/>
	</g>
</g>
<g>
	<path class="st21" d="M23.7,551.9L23.7,551.9c-3.6,0-6.6-2.9-6.6-6.6l0,0c0-3.6,2.9-6.6,6.6-6.6l0,0c3.6,0,6.6,2.9,6.6,6.6l0,0
		C30.3,549,27.4,551.9,23.7,551.9z"/>
	<g class="st22">
		<path class="st3" d="M23.1,541h1.2l2.9,7.9h-1.2l-0.8-2.4h-3.1l-0.9,2.4h-1.1L23.1,541z M24.9,545.7l-1.2-3.5l-1.3,3.5H24.9z"/>
	</g>
</g>
<g>
	<path class="st21" d="M25.8,242.2L25.8,242.2c-3.6,0-6.6-2.9-6.6-6.6l0,0c0-3.6,2.9-6.6,6.6-6.6l0,0c3.6,0,6.6,2.9,6.6,6.6l0,0
		C32.4,239.3,29.5,242.2,25.8,242.2z"/>
	<g class="st22">
		<path class="st3" d="M23.1,231.6h3.4c0.9,0,1.6,0.3,2,0.8c0.2,0.3,0.3,0.7,0.3,1.1c0,0.5-0.1,0.9-0.4,1.2
			c-0.1,0.2-0.4,0.3-0.6,0.5c0.4,0.2,0.7,0.3,0.9,0.5c0.4,0.3,0.5,0.8,0.5,1.4c0,0.5-0.2,1-0.5,1.4c-0.5,0.6-1.2,0.9-2.3,0.9h-3.4
			V231.6z M26.1,235c0.5,0,0.8-0.1,1.1-0.2c0.4-0.2,0.6-0.6,0.6-1.1c0-0.5-0.2-0.9-0.6-1c-0.2-0.1-0.6-0.2-1.1-0.2h-1.9v2.5H26.1z
			 M26.5,238.6c0.7,0,1.1-0.2,1.4-0.6c0.2-0.2,0.3-0.5,0.3-0.9c0-0.6-0.3-1-0.8-1.2c-0.3-0.1-0.6-0.2-1.1-0.2h-2.1v2.8H26.5z"/>
	</g>
</g>
<g>
	<path class="st21" d="M102.1,183.9L102.1,183.9c-3.6,0-6.6-2.9-6.6-6.6l0,0c0-3.6,2.9-6.6,6.6-6.6l0,0c3.6,0,6.6,2.9,6.6,6.6l0,0
		C108.7,181,105.8,183.9,102.1,183.9z"/>
	<g class="st22">
		<path class="st3" d="M99.4,173.3h3.4c0.9,0,1.6,0.3,2,0.8c0.2,0.3,0.3,0.7,0.3,1.1c0,0.5-0.1,0.9-0.4,1.2
			c-0.1,0.2-0.4,0.3-0.6,0.5c0.4,0.2,0.7,0.3,0.9,0.5c0.4,0.3,0.5,0.8,0.5,1.4c0,0.5-0.2,1-0.5,1.4c-0.5,0.6-1.2,0.9-2.3,0.9h-3.4
			V173.3z M102.4,176.7c0.5,0,0.8-0.1,1.1-0.2c0.4-0.2,0.6-0.6,0.6-1.1c0-0.5-0.2-0.9-0.6-1c-0.2-0.1-0.6-0.2-1.1-0.2h-1.9v2.5
			H102.4z M102.8,180.3c0.7,0,1.1-0.2,1.4-0.6c0.2-0.2,0.3-0.5,0.3-0.9c0-0.6-0.3-1-0.8-1.2c-0.3-0.1-0.6-0.2-1.1-0.2h-2.1v2.8
			H102.8z"/>
	</g>
</g>
<g>
	<path class="st21" d="M105.3,480L105.3,480c-3.6,0-6.6-2.9-6.6-6.6l0,0c0-3.6,2.9-6.6,6.6-6.6l0,0c3.6,0,6.6,2.9,6.6,6.6l0,0
		C111.9,477.1,109,480,105.3,480z"/>
	<g class="st22">
		<path class="st3" d="M102.6,469.4h3.4c0.9,0,1.6,0.3,2,0.8c0.2,0.3,0.3,0.7,0.3,1.1c0,0.5-0.1,0.9-0.4,1.2
			c-0.1,0.2-0.4,0.3-0.6,0.5c0.4,0.2,0.7,0.3,0.9,0.5c0.4,0.3,0.5,0.8,0.5,1.4c0,0.5-0.2,1-0.5,1.4c-0.5,0.6-1.2,0.9-2.3,0.9h-3.4
			V469.4z M105.6,472.8c0.5,0,0.8-0.1,1.1-0.2c0.4-0.2,0.6-0.6,0.6-1.1c0-0.5-0.2-0.9-0.6-1c-0.2-0.1-0.6-0.2-1.1-0.2h-1.9v2.5
			H105.6z M106,476.4c0.7,0,1.1-0.2,1.4-0.6c0.2-0.2,0.3-0.5,0.3-0.9c0-0.6-0.3-1-0.8-1.2c-0.3-0.1-0.6-0.2-1.1-0.2h-2.1v2.8H106z"
			/>
	</g>
</g>
<g>
	<path class="st21" d="M23.7,580.8L23.7,580.8c-3.6,0-6.6-2.9-6.6-6.6l0,0c0-3.6,2.9-6.6,6.6-6.6l0,0c3.6,0,6.6,2.9,6.6,6.6l0,0
		C30.3,577.9,27.4,580.8,23.7,580.8z"/>
	<g class="st22">
		<path class="st3" d="M21,570.2h3.4c0.9,0,1.6,0.3,2,0.8c0.2,0.3,0.3,0.7,0.3,1.1c0,0.5-0.1,0.9-0.4,1.2c-0.1,0.2-0.4,0.3-0.6,0.5
			c0.4,0.2,0.7,0.3,0.9,0.5c0.4,0.3,0.5,0.8,0.5,1.4c0,0.5-0.2,1-0.5,1.4c-0.5,0.6-1.2,0.9-2.3,0.9H21V570.2z M24,573.6
			c0.5,0,0.8-0.1,1.1-0.2c0.4-0.2,0.6-0.6,0.6-1.1c0-0.5-0.2-0.9-0.6-1c-0.2-0.1-0.6-0.2-1.1-0.2h-1.9v2.5H24z M24.4,577.2
			c0.7,0,1.1-0.2,1.4-0.6c0.2-0.2,0.3-0.5,0.3-0.9c0-0.6-0.3-1-0.8-1.2c-0.3-0.1-0.6-0.2-1.1-0.2h-2.1v2.8H24.4z"/>
	</g>
</g>
<g>
	<path class="st21" d="M278.8,480L278.8,480c-3.6,0-6.6-2.9-6.6-6.6l0,0c0-3.6,2.9-6.6,6.6-6.6l0,0c3.6,0,6.6,2.9,6.6,6.6l0,0
		C285.4,477.1,282.5,480,278.8,480z"/>
	<g class="st22">
		<path class="st3" d="M276.1,469.4h3.4c0.9,0,1.6,0.3,2,0.8c0.2,0.3,0.3,0.7,0.3,1.1c0,0.5-0.1,0.9-0.4,1.2
			c-0.1,0.2-0.4,0.3-0.6,0.5c0.4,0.2,0.7,0.3,0.9,0.5c0.4,0.3,0.5,0.8,0.5,1.4c0,0.5-0.2,1-0.5,1.4c-0.5,0.6-1.2,0.9-2.3,0.9h-3.4
			V469.4z M279.1,472.8c0.5,0,0.8-0.1,1.1-0.2c0.4-0.2,0.6-0.6,0.6-1.1c0-0.5-0.2-0.9-0.6-1c-0.2-0.1-0.6-0.2-1.1-0.2h-1.9v2.5
			H279.1z M279.5,476.4c0.7,0,1.1-0.2,1.4-0.6c0.2-0.2,0.3-0.5,0.3-0.9c0-0.6-0.3-1-0.8-1.2c-0.3-0.1-0.6-0.2-1.1-0.2h-2.1v2.8
			H279.5z"/>
	</g>
</g>
<g>
	<path class="st21" d="M378.8,480L378.8,480c-3.6,0-6.6-2.9-6.6-6.6l0,0c0-3.6,2.9-6.6,6.6-6.6l0,0c3.6,0,6.6,2.9,6.6,6.6l0,0
		C385.4,477.1,382.5,480,378.8,480z"/>
	<g class="st22">
		<path class="st3" d="M376.1,469.4h3.4c0.9,0,1.6,0.3,2,0.8c0.2,0.3,0.3,0.7,0.3,1.1c0,0.5-0.1,0.9-0.4,1.2
			c-0.1,0.2-0.4,0.3-0.6,0.5c0.4,0.2,0.7,0.3,0.9,0.5c0.4,0.3,0.5,0.8,0.5,1.4c0,0.5-0.2,1-0.5,1.4c-0.5,0.6-1.2,0.9-2.3,0.9h-3.4
			V469.4z M379.1,472.8c0.5,0,0.8-0.1,1.1-0.2c0.4-0.2,0.6-0.6,0.6-1.1c0-0.5-0.2-0.9-0.6-1c-0.2-0.1-0.6-0.2-1.1-0.2h-1.9v2.5
			H379.1z M379.5,476.4c0.7,0,1.1-0.2,1.4-0.6c0.2-0.2,0.3-0.5,0.3-0.9c0-0.6-0.3-1-0.8-1.2c-0.3-0.1-0.6-0.2-1.1-0.2h-2.1v2.8
			H379.5z"/>
	</g>
</g>
<g>
	<path class="st21" d="M25.8,259.7L25.8,259.7c-3.6,0-6.6-2.9-6.6-6.6l0,0c0-3.6,2.9-6.6,6.6-6.6l0,0c3.6,0,6.6,2.9,6.6,6.6l0,0
		C32.4,256.8,29.5,259.7,25.8,259.7z"/>
	<g class="st22">
		<path class="st3" d="M28.3,249.7c0.5,0.5,0.9,1.1,0.9,1.8h-1c-0.1-0.5-0.3-0.9-0.7-1.2c-0.3-0.3-0.8-0.4-1.5-0.4
			c-0.8,0-1.4,0.3-1.9,0.8s-0.7,1.4-0.7,2.5c0,0.9,0.2,1.7,0.6,2.3c0.4,0.6,1.1,0.9,1.9,0.9c0.8,0,1.4-0.3,1.8-0.9
			c0.2-0.3,0.4-0.7,0.5-1.3h1c-0.1,0.8-0.4,1.5-0.9,2.1c-0.6,0.7-1.5,1-2.5,1c-0.9,0-1.7-0.3-2.3-0.8c-0.8-0.7-1.2-1.9-1.2-3.4
			c0-1.2,0.3-2.1,0.9-2.9c0.7-0.8,1.6-1.2,2.7-1.2C27,248.9,27.7,249.2,28.3,249.7z"/>
	</g>
</g>
<g>
	<path class="st21" d="M129.8,183.9L129.8,183.9c-3.6,0-6.6-2.9-6.6-6.6l0,0c0-3.6,2.9-6.6,6.6-6.6l0,0c3.6,0,6.6,2.9,6.6,6.6l0,0
		C136.4,181,133.5,183.9,129.8,183.9z"/>
	<g class="st22">
		<path class="st3" d="M132.3,173.9c0.5,0.5,0.9,1.1,0.9,1.8h-1c-0.1-0.5-0.3-0.9-0.7-1.2c-0.3-0.3-0.8-0.4-1.5-0.4
			c-0.8,0-1.4,0.3-1.9,0.8c-0.5,0.5-0.7,1.4-0.7,2.5c0,0.9,0.2,1.7,0.6,2.3c0.4,0.6,1.1,0.9,1.9,0.9c0.8,0,1.4-0.3,1.8-0.9
			c0.2-0.3,0.4-0.7,0.5-1.3h1c-0.1,0.8-0.4,1.5-0.9,2.1c-0.6,0.7-1.5,1-2.5,1c-0.9,0-1.7-0.3-2.3-0.8c-0.8-0.7-1.2-1.9-1.2-3.4
			c0-1.2,0.3-2.1,0.9-2.9c0.7-0.8,1.6-1.2,2.7-1.2C131,173.1,131.7,173.4,132.3,173.9z"/>
	</g>
</g>
<g>
	<path class="st21" d="M25.8,277.2L25.8,277.2c-3.6,0-6.6-2.9-6.6-6.6l0,0c0-3.6,2.9-6.6,6.6-6.6l0,0c3.6,0,6.6,2.9,6.6,6.6l0,0
		C32.4,274.3,29.5,277.2,25.8,277.2z"/>
	<g class="st22">
		<path class="st3" d="M23.3,266.6h3.2c1.1,0,1.9,0.4,2.5,1.2c0.5,0.7,0.8,1.6,0.8,2.7c0,0.8-0.2,1.6-0.5,2.3
			c-0.5,1.2-1.5,1.8-2.8,1.8h-3.2V266.6z M26.2,273.6c0.4,0,0.6,0,0.9-0.1c0.4-0.1,0.7-0.4,1-0.8c0.2-0.3,0.4-0.7,0.4-1.2
			c0.1-0.3,0.1-0.6,0.1-0.8c0-1-0.2-1.7-0.6-2.3c-0.4-0.5-1-0.8-1.8-0.8h-1.9v6.1H26.2z"/>
	</g>
</g>
<g>
	<path class="st21" d="M157.5,183.9L157.5,183.9c-3.6,0-6.6-2.9-6.6-6.6l0,0c0-3.6,2.9-6.6,6.6-6.6l0,0c3.6,0,6.6,2.9,6.6,6.6l0,0
		C164.1,181,161.2,183.9,157.5,183.9z"/>
	<g class="st22">
		<path class="st3" d="M155,173.3h3.2c1.1,0,1.9,0.4,2.5,1.2c0.5,0.7,0.8,1.6,0.8,2.7c0,0.8-0.2,1.6-0.5,2.3
			c-0.5,1.2-1.5,1.8-2.8,1.8H155V173.3z M157.9,180.3c0.4,0,0.6,0,0.9-0.1c0.4-0.1,0.7-0.4,1-0.8c0.2-0.3,0.4-0.7,0.4-1.2
			c0.1-0.3,0.1-0.6,0.1-0.8c0-1-0.2-1.7-0.6-2.3c-0.4-0.5-1-0.8-1.8-0.8H156v6.1H157.9z"/>
	</g>
</g>
<g>
	<path class="st21" d="M337.4,551.9L337.4,551.9c-3.6,0-6.6-2.9-6.6-6.6l0,0c0-3.6,2.9-6.6,6.6-6.6l0,0c3.6,0,6.6,2.9,6.6,6.6l0,0
		C344,549,341.1,551.9,337.4,551.9z"/>
	<g class="st22">
		<path class="st3" d="M334.9,541.3h3.2c1.1,0,1.9,0.4,2.5,1.2c0.5,0.7,0.8,1.6,0.8,2.7c0,0.8-0.2,1.6-0.5,2.3
			c-0.5,1.2-1.5,1.8-2.8,1.8h-3.2V541.3z M337.8,548.3c0.4,0,0.6,0,0.9-0.1c0.4-0.1,0.7-0.4,1-0.8c0.2-0.3,0.4-0.7,0.4-1.2
			c0.1-0.3,0.1-0.6,0.1-0.8c0-1-0.2-1.7-0.6-2.3c-0.4-0.5-1-0.8-1.8-0.8h-1.9v6.1H337.8z"/>
	</g>
</g>
<g>
	<path class="st21" d="M25.8,294.7L25.8,294.7c-3.6,0-6.6-2.9-6.6-6.6l0,0c0-3.6,2.9-6.6,6.6-6.6l0,0c3.6,0,6.6,2.9,6.6,6.6l0,0
		C32.4,291.8,29.5,294.7,25.8,294.7z"/>
	<g class="st22">
		<path class="st3" d="M22.9,284.1h5.7v1h-4.7v2.4h4.3v0.9h-4.3v2.7h4.8v0.9h-5.8V284.1z"/>
	</g>
</g>
<g>
	<path class="st21" d="M185.2,183.9L185.2,183.9c-3.6,0-6.6-2.9-6.6-6.6l0,0c0-3.6,2.9-6.6,6.6-6.6l0,0c3.6,0,6.6,2.9,6.6,6.6l0,0
		C191.8,181,188.9,183.9,185.2,183.9z"/>
	<g class="st22">
		<path class="st3" d="M182.3,173.3h5.7v1h-4.7v2.4h4.3v0.9h-4.3v2.7h4.8v0.9h-5.8V173.3z"/>
	</g>
</g>
<g>
	<path class="st21" d="M205.8,224.7L205.8,224.7c-3.6,0-6.6-2.9-6.6-6.6l0,0c0-3.6,2.9-6.6,6.6-6.6l0,0c3.6,0,6.6,2.9,6.6,6.6l0,0
		C212.4,221.8,209.5,224.7,205.8,224.7z"/>
	<g class="st22">
		<path class="st3" d="M203.5,214.4h5.5v1h-4.4v2.4h3.9v0.9h-3.9v3.6h-1.1V214.4z"/>
	</g>
</g>
<g>
	<path class="st21" d="M212.8,183.9L212.8,183.9c-3.6,0-6.6-2.9-6.6-6.6l0,0c0-3.6,2.9-6.6,6.6-6.6l0,0c3.6,0,6.6,2.9,6.6,6.6l0,0
		C219.4,181,216.5,183.9,212.8,183.9z"/>
	<g class="st22">
		<path class="st3" d="M210.5,173.6h5.5v1h-4.4v2.4h3.9v0.9h-3.9v3.6h-1.1V173.6z"/>
	</g>
</g>
<g>
	<path class="st21" d="M205.8,242.2L205.8,242.2c-3.6,0-6.6-2.9-6.6-6.6l0,0c0-3.6,2.9-6.6,6.6-6.6l0,0c3.6,0,6.6,2.9,6.6,6.6l0,0
		C212.4,239.3,209.5,242.2,205.8,242.2z"/>
	<g class="st22">
		<path class="st3" d="M207.6,231.9c0.8,0.4,1.3,1.1,1.4,2.2H208c-0.1-0.6-0.4-1-0.8-1.3s-0.9-0.4-1.5-0.4c-0.7,0-1.3,0.3-1.8,0.8
			s-0.7,1.4-0.7,2.5c0,0.9,0.2,1.7,0.6,2.3c0.4,0.6,1.1,0.9,2,0.9c0.7,0,1.3-0.2,1.7-0.6c0.5-0.4,0.7-1.1,0.7-2h-2.5v-0.9h3.5v4.2
			h-0.7l-0.3-1c-0.4,0.4-0.7,0.7-0.9,0.8c-0.5,0.3-1.1,0.4-1.8,0.4c-0.9,0-1.7-0.3-2.4-0.9c-0.7-0.8-1.1-1.8-1.1-3.1
			c0-1.3,0.4-2.4,1.1-3.2c0.7-0.7,1.5-1.1,2.6-1.1C206.5,231.4,207.1,231.6,207.6,231.9z"/>
	</g>
</g>
<g>
	<path class="st21" d="M240.6,183.9L240.6,183.9c-3.6,0-6.6-2.9-6.6-6.6l0,0c0-3.6,2.9-6.6,6.6-6.6l0,0c3.6,0,6.6,2.9,6.6,6.6l0,0
		C247.2,181,244.3,183.9,240.6,183.9z"/>
	<g class="st22">
		<path class="st3" d="M242.4,173.6c0.8,0.4,1.3,1.1,1.4,2.2h-1.1c-0.1-0.6-0.4-1-0.8-1.3s-0.9-0.4-1.5-0.4c-0.7,0-1.3,0.3-1.8,0.8
			s-0.7,1.4-0.7,2.5c0,0.9,0.2,1.7,0.6,2.3c0.4,0.6,1.1,0.9,2,0.9c0.7,0,1.3-0.2,1.7-0.6c0.5-0.4,0.7-1.1,0.7-2h-2.5V177h3.5v4.2
			h-0.7l-0.3-1c-0.4,0.4-0.7,0.7-0.9,0.8c-0.5,0.3-1.1,0.4-1.8,0.4c-0.9,0-1.7-0.3-2.4-0.9c-0.7-0.8-1.1-1.8-1.1-3.1
			c0-1.3,0.4-2.4,1.1-3.2c0.7-0.7,1.5-1.1,2.6-1.1C241.3,173.1,241.9,173.3,242.4,173.6z"/>
	</g>
</g>
<g>
	<path class="st21" d="M205.8,259.7L205.8,259.7c-3.6,0-6.6-2.9-6.6-6.6l0,0c0-3.6,2.9-6.6,6.6-6.6l0,0c3.6,0,6.6,2.9,6.6,6.6l0,0
		C212.4,256.8,209.5,259.7,205.8,259.7z"/>
	<g class="st22">
		<path class="st3" d="M202.7,249.1h1.1v3.3h4.1v-3.3h1.1v7.9h-1.1v-3.7h-4.1v3.7h-1.1V249.1z"/>
	</g>
</g>
<g>
	<path class="st21" d="M268.3,183.9L268.3,183.9c-3.6,0-6.6-2.9-6.6-6.6l0,0c0-3.6,2.9-6.6,6.6-6.6l0,0c3.6,0,6.6,2.9,6.6,6.6l0,0
		C274.9,181,272,183.9,268.3,183.9z"/>
	<g class="st22">
		<path class="st3" d="M265.2,173.3h1.1v3.3h4.1v-3.3h1.1v7.9h-1.1v-3.7h-4.1v3.7h-1.1V173.3z"/>
	</g>
</g>
<g>
	<path class="st21" d="M205.8,277.2L205.8,277.2c-3.6,0-6.6-2.9-6.6-6.6l0,0c0-3.6,2.9-6.6,6.6-6.6l0,0c3.6,0,6.6,2.9,6.6,6.6l0,0
		C212.4,274.3,209.5,277.2,205.8,277.2z"/>
	<g class="st22">
		<path class="st3" d="M205.3,266.6h1.1v7.9h-1.1V266.6z"/>
	</g>
</g>
<path class="st21" d="M25.3,477.7H0.5v-29.2c0-1.7,1.4-3.1,3.1-3.1h29.2v24.8C32.7,474.4,29.4,477.7,25.3,477.7z"/>
<text transform="matrix(1 0 0 1 11.3929 468.811)" class="st3 st14 st23">4</text>
<path class="st21" d="M26,32.7H1.2V3.5c0-1.7,1.4-3.1,3.1-3.1h29.2v24.8C33.5,29.4,30.1,32.7,26,32.7z"/>
<text transform="matrix(1 0 0 1 12.1239 23.8307)" class="st3 st14 st23">1</text>
<text transform="matrix(1 0 0 1 17.3466 78.9718)" class="st8 st14 st20">Select the date range you want to search. You can typically see availability up to 6mo in advance</text>
<text transform="matrix(1 0 0 1 17.3466 203.9718)" class="st8 st24 st20">Select the parks you want to search</text>
<path class="st21" d="M26,679.7H1.2v-29.2c0-1.7,1.4-3.1,3.1-3.1h29.2v24.8C33.5,676.4,30.1,679.7,26,679.7z"/>
<text transform="matrix(1 0 0 1 12.1239 670.8055)" class="st3 st14 st23">5</text>
<text transform="matrix(1 0 0 1 17.3466 693.9466)" class="st8 st14 st20">Searching ReserveCalifornia.com takes time... A lot of time, and we can only search 2 campgrounds</text>
<text transform="matrix(1 0 0 1 17.3466 705.2466)" class="st8 st14 st20">at a time. So be patient</text>
<path class="st21" d="M26,357.7H1.2v-29.2c0-1.7,1.4-3.1,3.1-3.1h29.2v24.8C33.5,354.4,30.1,357.7,26,357.7z"/>
<text transform="matrix(1 0 0 1 12.1239 348.8165)" class="st3 st14 st23">3</text>
<text transform="matrix(1 0 0 1 17.3466 403.9576)" class="st8 st14 st20">Most parks have multiple campgrounds - We search all of them, and report the results separately.</text>
<text transform="matrix(1 0 0 1 17.3466 415.2576)" class="st8 st14 st20">If you hover over one of the campgrounds, you can see the name of it</text>
<text transform="matrix(1 0 0 1 36.2024 220.9688)" class="st8 st14 st20">Fire ring at each site</text>
<text transform="matrix(1 0 0 1 36.2024 238.4689)" class="st8 st14 st20">Food locker at each site</text>
<text transform="matrix(1 0 0 1 36.2024 255.9686)" class="st8 st14 st20">Grill at each site</text>
<text transform="matrix(1 0 0 1 36.2024 273.4687)" class="st8 st14 st20">Dogs allowed</text>
<text transform="matrix(1 0 0 1 36.2024 290.9689)" class="st8 st14 st20">Picnic table at each site</text>
<text transform="matrix(1 0 0 1 216.7024 220.9688)" class="st8 st14 st20">Showers available</text>
<text transform="matrix(1 0 0 1 216.7024 238.4689)" class="st8 st14 st20">Restrooms available</text>
<text transform="matrix(1 0 0 1 216.7024 255.9686)" class="st8 st14 st20">Drinking water available</text>
<text transform="matrix(1 0 0 1 216.7024 273.4687)" class="st8 st14 st20">Maximum People/Cars allowed</text>
<path class="st21" d="M26,144.7H1.2v-29.2c0-1.7,1.4-3.1,3.1-3.1h29.2v24.8C33.5,141.4,30.1,144.7,26,144.7z"/>
<text transform="matrix(1 0 0 1 12.1239 135.8307)" class="st3 st14 st23">2</text>
<g>
	<rect x="328.9" y="497.4" class="st8" width="4.3" height="2.3"/>
	<rect x="328.9" y="529.4" class="st8" width="10.7" height="2.3"/>
	<rect x="326.6" y="499.7" class="st8" width="2.3" height="16.9"/>
	<rect x="348" y="510.3" class="st8" width="2.3" height="10.4"/>
	<rect x="345.9" y="520.7" class="st8" width="2.3" height="4.5"/>
	<rect x="318.1" y="512.3" class="st8" width="2.3" height="4.5"/>
	<rect x="322.4" y="518.6" class="st8" width="2.3" height="4.5"/>
	<rect x="328.8" y="527.1" class="st8" width="2.3" height="4.5"/>
	<rect x="341.8" y="516.6" class="st8" width="2.3" height="8.6"/>
	<rect x="337.5" y="516.6" class="st8" width="2.3" height="8.6"/>
	<rect x="339.6" y="508" class="st8" width="2.3" height="4.4"/>
	<rect x="343.8" y="507.9" class="st8" width="2.3" height="4.4"/>
	<rect x="333.2" y="499.7" class="st8" width="2.3" height="12.7"/>
	<rect x="333.3" y="516.6" class="st8" width="2.3" height="8.6"/>
	<rect x="343.9" y="525.2" class="st8" width="2.3" height="6.4"/>
	<rect x="333.2" y="505.8" class="st8" width="10.7" height="2.3"/>
	<rect x="343.8" y="508" class="st8" width="4.1" height="2.4"/>
	<rect x="341.7" y="529.4" class="st8" width="4.2" height="2.3"/>
	<rect x="326.6" y="524.9" class="st8" width="2.3" height="2.3"/>
	<rect x="320.1" y="516.6" class="st8" width="2.3" height="2.3"/>
	<rect x="324.5" y="512.4" class="st8" width="2.3" height="2.3"/>
	<rect x="339.6" y="527.3" class="st8" width="2.3" height="2.3"/>
	<rect x="320.4" y="510" class="st8" width="4.4" height="2.3"/>
	<rect x="324.6" y="522.9" class="st8" width="2" height="2"/>
</g>
<g>
	<polygon class="st3" points="194.6,376.2 191.9,376.2 191.9,374.7 185.3,374.7 185.3,369.4 182.3,369.4 182.3,379.6 180.9,379.6 
		180.9,378.8 179.6,378.8 179.6,377.5 176.8,377.5 176.8,381 178,381 178,382 179.6,382 179.6,384.4 180.8,384.4 180.8,385.8 
		182.3,385.8 182.3,387.4 183.7,387.4 183.7,388.5 193.2,388.5 193.2,383.1 194.6,383.1 	"/>
	<rect x="182.3" y="368" class="st8" width="2.8" height="1.5"/>
	<rect x="182.3" y="388.5" class="st8" width="6.9" height="1.5"/>
	<rect x="180.8" y="369.4" class="st8" width="1.5" height="10.9"/>
	<rect x="194.6" y="376.3" class="st8" width="1.5" height="6.7"/>
	<rect x="193.3" y="383" class="st8" width="1.5" height="2.9"/>
	<rect x="175.3" y="377.5" class="st8" width="1.5" height="2.9"/>
	<rect x="178" y="381.7" class="st8" width="1.5" height="2.9"/>
	<rect x="182.3" y="387" class="st8" width="1.5" height="2.9"/>
	<rect x="190.5" y="380.2" class="st8" width="1.5" height="5.6"/>
	<rect x="187.8" y="380.2" class="st8" width="1.5" height="5.6"/>
	<rect x="189.1" y="374.8" class="st8" width="1.5" height="2.8"/>
	<rect x="191.9" y="374.8" class="st8" width="1.5" height="2.8"/>
	<rect x="185.1" y="369.4" class="st8" width="1.5" height="8.2"/>
	<rect x="185" y="380.3" class="st8" width="1.5" height="5.6"/>
	<rect x="191.9" y="385.8" class="st8" width="1.5" height="4.1"/>
	<rect x="185.1" y="373.4" class="st8" width="6.9" height="1.5"/>
	<rect x="191.9" y="374.8" class="st8" width="2.7" height="1.5"/>
	<rect x="190.5" y="388.5" class="st8" width="2.7" height="1.5"/>
	<rect x="180.8" y="385.6" class="st8" width="1.5" height="1.5"/>
	<rect x="176.6" y="380.3" class="st8" width="1.5" height="1.5"/>
	<rect x="179.5" y="377.6" class="st8" width="1.5" height="1.5"/>
	<rect x="189.2" y="387.2" class="st8" width="1.5" height="1.5"/>
	<rect x="176.8" y="376.1" class="st8" width="2.8" height="1.5"/>
	<rect x="179.6" y="384.4" class="st8" width="1.3" height="1.3"/>
</g>
<rect x="328.9" y="499.7" class="st3" width="4.3" height="11.1"/>
<g>
	<path class="st25" d="M309.1,136.8c-0.6-0.6-0.9-1.4-0.9-2.3c0-1,0.4-1.9,1.1-2.5c-0.4-0.2-0.8-0.3-1.2-0.3c-1.4,0-2.4,1.1-2.4,2.4
		c0,0.7,0.3,1.4,0.9,1.9l0.4,0.3l-0.5,0.2c-0.8,0.2-1.6,0.7-1.6,1.8v2.1h2.4v-1.1C307.2,138.2,307.9,137.3,309.1,136.8z"/>
	<path class="st25" d="M318.4,138.3c0-1.1-0.9-1.6-1.6-1.8l-0.5-0.2l0.4-0.3c0.6-0.5,0.9-1.2,0.9-1.9c0-1.4-1.1-2.4-2.4-2.4
		c-0.4,0-0.8,0.1-1.2,0.3c0.7,0.6,1.1,1.5,1.1,2.5c0,0.9-0.3,1.7-0.9,2.3c1.2,0.5,1.9,1.4,1.9,2.5v1.1h2.4L318.4,138.3L318.4,138.3z
		"/>
	<path class="st25" d="M313.6,137.2l-0.5-0.2l0.4-0.3c0.1-0.1,0.2-0.2,0.3-0.3l0.1-0.1c0.4-0.5,0.6-1.1,0.6-1.8c0-0.9-0.4-1.7-1-2.2
		c-0.5-0.4-1.1-0.7-1.8-0.7c-0.7,0-1.3,0.3-1.8,0.7c-0.6,0.5-1,1.3-1,2.2c0,0.6,0.2,1.3,0.6,1.8l0.1,0.1c0.1,0.1,0.2,0.2,0.3,0.3
		l0.4,0.3l-0.5,0.2c-0.9,0.3-1.9,0.8-1.9,2.1v1.1v1.4h7.7v-1.4v-1.1C315.5,138.1,314.4,137.5,313.6,137.2z"/>
</g>
<path class="st25" d="M268.1,153.6c0,0-4.3,4-4.3,7.1c0,2.4,1.9,4.3,4.3,4.3s4.3-1.9,4.3-4.3C272.4,157.8,268.1,153.6,268.1,153.6z
	 M267.9,163.9C267.9,163.9,267.8,163.9,267.9,163.9c-1.6-0.1-2.9-1.4-3-3c0-0.2,0.1-0.4,0.4-0.4c0.2,0,0.4,0.1,0.4,0.4
	c0.1,1.2,1,2.1,2.2,2.2c0.2,0,0.4,0.2,0.4,0.4C268.2,163.7,268.1,163.9,267.9,163.9z"/>
<g class="st26">
	<g>
		<path class="st25" d="M130,163.3c-3,0-5.4-2.4-5.4-5.4c0-0.2,0.2-0.4,0.4-0.4h10c0.2,0,0.4,0.2,0.4,0.4
			C135.4,160.8,133,163.3,130,163.3z"/>
	</g>
	<g>
		<path class="st25" d="M125.2,169.4c-0.1,0-0.1,0-0.2,0c-0.2-0.1-0.3-0.3-0.2-0.5l2.7-6.6c0.1-0.2,0.3-0.3,0.5-0.2s0.3,0.3,0.2,0.5
			l-2.7,6.6C125.5,169.3,125.3,169.4,125.2,169.4z"/>
	</g>
	<g>
		<path class="st25" d="M134.1,167.9h-8.3c-0.2,0-0.4-0.2-0.4-0.4s0.2-0.4,0.4-0.4h7.7l-1.9-4.6c-0.1-0.2,0-0.5,0.2-0.5
			c0.2-0.1,0.5,0,0.5,0.2l2.1,5.1c0.1,0.1,0,0.3,0,0.4C134.4,167.9,134.2,167.9,134.1,167.9z"/>
	</g>
	<g>
		<path class="st25" d="M134.1,169.6c-1.1,0-2-0.9-2-2s0.9-2,2-2s2,0.9,2,2C136.2,168.6,135.2,169.6,134.1,169.6z M134.1,166.3
			c-0.7,0-1.2,0.5-1.2,1.2s0.5,1.2,1.2,1.2s1.2-0.5,1.2-1.2S134.8,166.3,134.1,166.3z"/>
	</g>
	<g>
		<path class="st25" d="M131.9,156.8c-0.1,0-0.3-0.1-0.4-0.2c-0.4-0.7-0.5-1.2-0.5-1.7c0.1-0.4,0.3-0.6,0.5-0.9
			c0.2-0.2,0.3-0.4,0.4-0.6c0.1-0.5-0.2-0.9-0.5-1.3l0,0c-0.1-0.2-0.1-0.4,0.1-0.6c0.2-0.1,0.4-0.1,0.6,0.1l0,0
			c0.4,0.4,0.9,1.1,0.7,2c-0.1,0.4-0.3,0.7-0.6,1c-0.1,0.2-0.3,0.3-0.3,0.4c0,0.3,0,0.5,0.3,1.2c0.1,0.2,0.1,0.5-0.1,0.6
			C132.1,156.7,132,156.8,131.9,156.8z"/>
	</g>
	<g>
		<path class="st25" d="M130,156.8c-0.1,0-0.3-0.1-0.4-0.2c-0.4-0.7-0.5-1.2-0.5-1.7c0.1-0.4,0.3-0.6,0.5-0.9
			c0.2-0.2,0.3-0.4,0.4-0.6c0.1-0.5-0.2-0.9-0.5-1.3l0,0c-0.1-0.2-0.1-0.4,0.1-0.6c0.2-0.1,0.4-0.1,0.6,0.1l0,0
			c0.4,0.4,0.9,1.1,0.7,2c-0.1,0.4-0.3,0.7-0.6,1c-0.1,0.2-0.3,0.3-0.3,0.4c0,0.3,0,0.5,0.3,1.2c0.1,0.2,0.1,0.5-0.1,0.6
			C130.1,156.7,130,156.8,130,156.8z"/>
	</g>
	<g>
		<path class="st25" d="M128,156.8c-0.1,0-0.3-0.1-0.4-0.2c-0.4-0.7-0.5-1.2-0.5-1.7c0.1-0.4,0.3-0.6,0.5-0.9
			c0.2-0.2,0.3-0.4,0.4-0.6c0.1-0.5-0.2-0.9-0.5-1.3l0,0c-0.1-0.2-0.1-0.4,0.1-0.6c0.2-0.1,0.4-0.1,0.6,0.1l0,0
			c0.4,0.4,0.9,1.1,0.7,2c-0.1,0.4-0.3,0.7-0.6,1c-0.1,0.2-0.3,0.3-0.3,0.4c0,0.3,0,0.5,0.3,1.2c0.1,0.2,0.1,0.5-0.1,0.6
			C128.2,156.7,128.1,156.8,128,156.8z"/>
	</g>
</g>
<g>
	<g>
		<path class="st25" d="M106.4,161.6h-1.3v-1.2c0-1.1-0.9-2.1-2.1-2.1c-1.1,0-2.1,0.9-2.1,2.1v1.2h-1.3v-1.2c0-1.9,1.5-3.4,3.4-3.4
			s3.4,1.5,3.4,3.4V161.6z"/>
	</g>
	<path class="st25" d="M98.6,162.3v7.1h8.8v-7.1H98.6z M103.4,166.2v0.4c0,0.2-0.2,0.4-0.4,0.4c-0.2,0-0.4-0.2-0.4-0.4v-0.4
		c-0.2-0.1-0.3-0.3-0.3-0.6c0-0.4,0.3-0.7,0.7-0.7c0.4,0,0.7,0.3,0.7,0.7C103.7,165.9,103.6,166.1,103.4,166.2z"/>
	<g>
		<path class="st25" d="M109.9,152.5c0,1,0,1.9,0,2.9c0,4.4,0,8.8,0,13.3c0,0.3,0,0.6-0.3,0.8c-0.4,0.3-1,0.1-1.1-0.5
			c0-0.1,0-0.3,0-0.4c0-1.4,0-2.8,0-4.2c0-0.3,0.1-0.5,0.2-0.8c0.2-0.8-0.1-1.3-0.8-1.6c-0.1,0-0.2-0.2-0.2-0.2c0-2.6,0.1-5.2,1-7.7
			c0.2-0.4,0.4-0.8,0.7-1.2c0.1-0.1,0.3-0.2,0.4-0.3C109.8,152.4,109.8,152.5,109.9,152.5z"/>
	</g>
	<g>
		<path class="st25" d="M95.1,152.8c0.1,0,0.2,0,0.4,0c0,1.5-0.1,3-0.1,4.5c0.2,0,0.3,0,0.5,0c0-1.5,0-3,0-4.5c0.2,0,0.3,0,0.4,0
			c0,1.5,0,3,0,4.5c0.2,0,0.3,0,0.4,0c0-1.5,0-3,0-4.5c0.4-0.1,0.4-0.1,0.4,0.3c0,1.2,0,2.5,0,3.7c0,0.1,0,0.3,0,0.4
			c0.2,0,0.3,0,0.4,0c0-1.5,0-3,0-4.5c0.1,0,0.2,0,0.3,0c0,0.1,0.1,0.2,0.1,0.3c0.1,1,0.2,2,0.3,2.9c0,0.2,0.1,0.5,0.1,0.7
			c0.1,0.5-0.1,1-0.5,1.4c-0.8,0.8-1,1.8-0.8,2.9c0.1,0.5,0.2,1.1,0.2,1.6c0,2,0,4,0,6c0,0.2,0,0.3,0,0.5c-0.1,0.3-0.4,0.5-0.7,0.5
			c-0.3,0-0.6-0.3-0.7-0.6c0-0.1,0-0.3,0-0.4c0-1.9,0-3.7,0-5.6c0-0.8,0.1-1.6,0.3-2.3c0.2-1-0.1-1.8-0.8-2.5
			c-0.5-0.6-0.7-1.2-0.6-1.9C94.8,155.1,95,154,95.1,152.8z"/>
	</g>
</g>
<g>
	<rect x="178.7" y="151.4" class="st25" width="12.6" height="1.4"/>
	<rect x="175" y="157.8" class="st25" width="20.2" height="1.4"/>
	<g>
		<polyline class="st25" points="188.4,152.8 192,165.7 189.6,165.7 186,152.8 		"/>
		<polyline class="st25" points="181.7,152.8 178.1,165.7 180.4,165.7 184.1,152.8 		"/>
	</g>
</g>
<g>
	<path class="st25" d="M306.9,158.2l0.5-2.3c0.2-0.7,0.7-1.3,1.4-1.3h5.7c0.7,0,1.3,0.5,1.4,1.3l0.5,2.3h0.4c0.1,0,0.2,0,0.3,0
		l-0.5-2.5c-0.2-1-1-1.8-2-1.8h-5.7c-1,0-1.8,0.7-2,1.8l-0.5,2.6C306.5,158.2,306.7,158.2,306.9,158.2L306.9,158.2z"/>
	<path class="st25" d="M317,158.2c-0.1,0-0.2,0-0.3,0h-0.4h-9.4h-0.1c-0.2,0-0.4,0-0.6,0.1c-0.6,0.2-1.1,0.9-1.1,1.6v3.3
		c0,0.4,0.3,0.7,0.7,0.7h0.7v1.3c0,0.3,0.3,0.5,0.6,0.5h0.9c0.3,0,0.6-0.2,0.6-0.5V164h6v1.3c0,0.3,0.3,0.5,0.6,0.5h0.9
		c0.3,0,0.6-0.2,0.6-0.5V164h0.7c0.4,0,0.7-0.3,0.7-0.7V160C318.4,159,317.8,158.4,317,158.2z M315.9,159.2c0.3,0,0.5,0.1,0.7,0.2
		c0.3,0.2,0.5,0.6,0.5,1c0,0.5-0.3,1-0.8,1.2c-0.1,0.1-0.3,0.1-0.4,0.1c-0.7,0-1.3-0.6-1.3-1.3S315.2,159.2,315.9,159.2z M306.6,160
		c0.2-0.5,0.6-0.8,1.2-0.8c0.7,0,1.3,0.6,1.3,1.3s-0.6,1.3-1.3,1.3c-0.5,0-1-0.3-1.1-0.7c-0.1-0.2-0.1-0.3-0.1-0.5
		C306.5,160.3,306.5,160.1,306.6,160z"/>
</g>
<g>
	<g>
		<path class="st25" d="M80.3,168.4H68.4c-0.8,0-1.4-0.6-1.4-1.4v-2.5h0.9v2.5c0,0.3,0.3,0.6,0.6,0.6h11.9c0.3,0,0.6-0.3,0.6-0.6
			v-2.5h0.9v2.5C81.7,167.7,81.1,168.4,80.3,168.4z"/>
	</g>
	<polygon class="st25" points="78.7,164.2 69.6,161 69.6,163 78.7,166.1 	"/>
	<polygon class="st25" points="69.6,161 69.6,163 71.3,163.6 74.1,162.6 	"/>
	<polygon class="st25" points="78.7,166.1 78.7,164.2 76.9,163.6 74.1,164.6 	"/>
	<polygon class="st25" points="69.6,164.2 69.6,166.1 73.4,164.8 70.6,163.8 	"/>
	<polygon class="st25" points="78.7,163 78.7,161 74.8,162.4 77.6,163.4 	"/>
	<g>
		<path class="st25" d="M77.6,158.3c0-0.6-0.3-1.4-0.6-2.1c0-0.1-0.2-0.1-0.2,0c-0.3,0.7-0.6,1.2-1,1.7c-0.6,0.8-1.2,1.6-1.2,3.7
			c0,0.1,0.1,0.1,0.1,0.1C76.4,161.4,77.6,160,77.6,158.3z"/>
		<path class="st25" d="M76.2,154.9c0-0.1,0-0.1,0-0.2c-1.1-1.5-2.5-2.8-3.1-2.8h-0.3l0.1,0.3c0,0,0.5,1.6-1.1,3.3
			c-1,1.1-1.2,2-1.2,2.8c0,1.7,1.3,3.2,2.9,3.5c0.1,0,0.1,0,0.1-0.1c0.1-2.4,0.7-3.4,1.4-4.3C75.5,156.7,76,156.1,76.2,154.9z"/>
	</g>
</g>
<g>
	<g>
		<circle class="st25" cx="245.6" cy="154.1" r="1.2"/>
		<path class="st25" d="M248.4,157.6h-5.6V157c0-0.8,0.7-1.5,1.5-1.5h2.6c0.8,0,1.5,0.7,1.5,1.5V157.6z"/>
		<path class="st25" d="M243.3,161.2L243.3,161.2c-0.3,0-0.5-0.2-0.5-0.4v-3.1h0.9v3.1C243.7,161,243.5,161.2,243.3,161.2z"/>
		<path class="st25" d="M247.9,161.2L247.9,161.2c-0.3,0-0.5-0.2-0.5-0.4v-3.1h0.9v3.1C248.4,161,248.2,161.2,247.9,161.2z"/>
		<rect x="244.1" y="157.3" class="st25" width="3" height="3.9"/>
		<path class="st25" d="M246.4,167.5L246.4,167.5c0.4,0,0.7-0.3,0.7-0.6v-5.6h-1.3v5.6C245.8,167.2,246,167.5,246.4,167.5z"/>
		<path class="st25" d="M244.7,167.5L244.7,167.5c0.4,0,0.7-0.3,0.7-0.6v-5.6h-1.3v5.6C244.1,167.2,244.4,167.5,244.7,167.5z"/>
	</g>
	<g>
		<path class="st25" d="M238.9,159.9l-1.7-3.9c-0.1-0.3-0.4-0.5-0.7-0.5l0,0h-0.6l0,0h-0.5h-0.5l0,0h-0.6l0,0
			c-0.3,0-0.6,0.2-0.7,0.5l-1.7,3.9c-0.1,0.2,0,0.5,0.2,0.5c0.2,0.1,0.5,0,0.5-0.2l1.3-3l-1.4,5.6h1.4v4.2c0,0.3,0.2,0.5,0.5,0.5
			s0.5-0.2,0.5-0.5v-4.2h0.4h0.4v4.2c0,0.3,0.2,0.5,0.5,0.5s0.5-0.2,0.5-0.5v-4.2h1.4l-1.4-5.6l1.3,3c0.1,0.2,0.3,0.3,0.5,0.2
			C238.9,160.4,239,160.2,238.9,159.9z"/>
		<circle class="st25" cx="235.5" cy="154.1" r="1.2"/>
	</g>
	<rect x="240" y="153" class="st25" width="1.2" height="14.5"/>
</g>
<g>
	<g>
		<circle class="st25" cx="212.9" cy="159.1" r="1.6"/>
	</g>
	<g>
		<path class="st25" d="M214.6,163.1c-0.2,0-0.3-0.1-0.5-0.2c-0.2-0.3-0.2-0.7,0-0.9l4.6-4.3c0.3-0.2,0.7-0.2,0.9,0
			c0.2,0.3,0.2,0.7,0,0.9l-4.6,4.3C214.9,163,214.7,163.1,214.6,163.1z"/>
	</g>
	<g>
		<path class="st25" d="M211.2,161.1h4.2v7h-4.7v-6.4C210.7,161.4,210.9,161.1,211.2,161.1z"/>
	</g>
	<g>
		<path class="st25" d="M210.7,165.4h-2.5c-0.5,0-0.8-0.6-0.4-1l3.2-3.2l1.1,3.2L210.7,165.4z"/>
	</g>
	<g>
		<path class="st3" d="M212,165.9h-0.1c-0.5,0-0.8-0.4-0.8-0.8v-0.5c0-0.5,0.4-0.8,0.8-0.8h0.1c0.5,0,0.8,0.4,0.8,0.8v0.5
			C212.8,165.5,212.4,165.9,212,165.9z"/>
	</g>
	<g>
		<path class="st25" d="M212,164.2h-2.4c-0.3,0-0.6,0.2-0.6,0.6v0.1c0,0.3,0.2,0.6,0.6,0.6h2.4c0.3,0,0.6-0.2,0.6-0.6v-0.1
			C212.5,164.5,212.3,164.2,212,164.2z"/>
	</g>
	<g>
		<path class="st25" d="M207,152.2h-1.5c-0.6,0-1.2,0.5-1.2,1.2v1.5c0,0.1,0.2,0.2,0.2,0.1l2.5-2.5
			C207.2,152.3,207.2,152.2,207,152.2z"/>
	</g>
	<g>
		<g>
			<g>
				<path class="st25" d="M207.3,153.3c-0.1,0-0.2,0-0.2-0.1c-0.1-0.1-0.1-0.1-0.1-0.2c0-0.1,0-0.2,0.1-0.2c0.1-0.1,0.3-0.1,0.5,0
					c0.1,0.1,0.1,0.1,0.1,0.2c0,0.1,0,0.2-0.1,0.2C207.4,153.3,207.4,153.3,207.3,153.3z"/>
			</g>
		</g>
		<g>
			<g>
				<path class="st25" d="M214.1,156.4c-0.2-0.1-0.2-0.3-0.2-0.4l0,0c0.1-0.2,0.3-0.2,0.4-0.2l0,0c0.2,0.1,0.2,0.3,0.2,0.4l0,0
					C214.4,156.3,214.3,156.4,214.1,156.4L214.1,156.4C214.2,156.4,214.2,156.4,214.1,156.4z M213,155.9c-0.2-0.1-0.2-0.3-0.2-0.4
					l0,0c0.1-0.2,0.3-0.2,0.4-0.2l0,0c0.2,0.1,0.2,0.3,0.2,0.4l0,0C213.3,155.8,213.2,155.9,213,155.9L213,155.9
					C213,155.9,213,155.9,213,155.9z M211.8,155.4c-0.2-0.1-0.2-0.3-0.2-0.4l0,0c0.1-0.2,0.3-0.2,0.4-0.2l0,0
					c0.2,0.1,0.2,0.3,0.2,0.4l0,0C212.1,155.3,212,155.4,211.8,155.4L211.8,155.4L211.8,155.4z M210.6,154.8
					c-0.2-0.1-0.2-0.3-0.2-0.4l0,0c0.1-0.2,0.3-0.2,0.4-0.2l0,0c0.2,0.1,0.2,0.3,0.2,0.4l0,0C210.9,154.7,210.8,154.8,210.6,154.8
					L210.6,154.8C210.7,154.9,210.7,154.8,210.6,154.8z M209.5,154.3c-0.2-0.1-0.2-0.3-0.2-0.4l0,0c0.1-0.2,0.3-0.2,0.4-0.2l0,0
					c0.2,0.1,0.2,0.3,0.2,0.4l0,0C209.8,154.2,209.7,154.3,209.5,154.3L209.5,154.3C209.6,154.3,209.5,154.3,209.5,154.3z
					 M208.3,153.8c-0.2-0.1-0.2-0.3-0.2-0.4l0,0c0.1-0.2,0.3-0.2,0.4-0.2l0,0c0.2,0.1,0.2,0.3,0.2,0.4l0,0
					C208.6,153.7,208.5,153.8,208.3,153.8L208.3,153.8C208.4,153.8,208.4,153.8,208.3,153.8z"/>
			</g>
		</g>
		<g>
			<g>
				<path class="st25" d="M215.4,156.9h-0.1c0,0-0.1,0-0.1-0.1c-0.1-0.1-0.1-0.1-0.1-0.2v-0.1c0,0,0-0.1,0.1-0.1l0.1-0.1
					c0.1,0,0.3,0,0.3,0.1l0.1,0.1v0.1c0,0.1,0,0.2-0.1,0.2S215.5,156.9,215.4,156.9z"/>
			</g>
		</g>
	</g>
	<g>
		<g>
			<g>
				<path class="st25" d="M206.6,153.9c-0.1,0-0.2,0-0.2-0.1c-0.1-0.1-0.1-0.1-0.1-0.2v-0.1c0,0,0-0.1,0.1-0.1l0.1-0.1
					c0.1-0.1,0.3,0,0.3,0.1l0.1,0.1v0.1c0,0.1,0,0.2-0.1,0.2C206.8,153.9,206.7,153.9,206.6,153.9z"/>
			</g>
		</g>
		<g>
			<g>
				<path class="st25" d="M209.7,156.5c-0.1-0.1-0.2-0.3,0-0.4l0,0c0.1-0.1,0.3-0.2,0.4-0.1l0,0c0.1,0.1,0.2,0.3,0.1,0.4l0,0
					c-0.1,0.1-0.2,0.1-0.3,0.1l0,0C209.9,156.6,209.8,156.5,209.7,156.5z M208.6,155.6c-0.1-0.1-0.2-0.3,0-0.5l0,0
					c0.1-0.1,0.3-0.2,0.4,0l0,0c0.1,0.1,0.2,0.3,0.1,0.4l0,0c-0.1,0.1-0.2,0.1-0.3,0.1l0,0C208.8,155.7,208.7,155.7,208.6,155.6z
					 M207.5,154.7c-0.1-0.1-0.2-0.3,0-0.5l0,0c0.1-0.1,0.3-0.2,0.4,0l0,0c0.1,0.1,0.2,0.3,0.1,0.4l0,0c-0.1,0.1-0.2,0.1-0.3,0.1l0,0
					C207.7,154.8,207.6,154.8,207.5,154.7z"/>
			</g>
		</g>
		<g>
			<g>
				<path class="st25" d="M211,157.4c-0.1,0-0.2,0-0.2-0.1l-0.1-0.1v-0.1c0-0.1,0-0.2,0.1-0.2c0.1-0.1,0.3-0.1,0.5,0
					c0.1,0.1,0.1,0.1,0.1,0.2c0,0.1,0,0.2-0.1,0.2C211.2,157.4,211.1,157.4,211,157.4z"/>
			</g>
		</g>
	</g>
	<g>
		<g>
			<g>
				<path class="st25" d="M205.9,154.6c-0.1,0-0.2,0-0.2-0.1c-0.1-0.1-0.1-0.1-0.1-0.2c0-0.1,0-0.2,0.1-0.2c0.1-0.1,0.3-0.1,0.5,0
					c0.1,0.1,0.1,0.1,0.1,0.2c0,0.1,0,0.2-0.1,0.2C206.1,154.6,206,154.6,205.9,154.6z"/>
			</g>
		</g>
		<g>
			<g>
				<path class="st25" d="M209,158.8c-0.1-0.1-0.1-0.3,0.1-0.4l0,0c0.1-0.1,0.3-0.1,0.4,0.1l0,0c0.1,0.1,0.1,0.3-0.1,0.4l0,0
					c-0.1,0-0.1,0.1-0.2,0.1l0,0C209.2,159,209.1,158.9,209,158.8z M208.2,157.8c-0.1-0.1-0.1-0.3,0.1-0.4l0,0
					c0.1-0.1,0.3-0.1,0.4,0.1l0,0c0.1,0.1,0.1,0.3-0.1,0.4l0,0c-0.1,0-0.1,0.1-0.2,0.1l0,0C208.4,157.9,208.3,157.8,208.2,157.8z
					 M207.4,156.7c-0.1-0.1-0.1-0.3,0.1-0.4l0,0c0.1-0.1,0.3-0.1,0.4,0.1l0,0c0.1,0.1,0.1,0.3-0.1,0.4l0,0c-0.1,0-0.1,0.1-0.2,0.1
					l0,0C207.5,156.8,207.4,156.7,207.4,156.7z M206.5,155.6c-0.1-0.1-0.1-0.3,0.1-0.4l0,0c0.1-0.1,0.3-0.1,0.4,0.1l0,0
					c0.1,0.1,0.1,0.3-0.1,0.4l0,0c-0.1,0-0.1,0.1-0.2,0.1l0,0C206.7,155.7,206.6,155.7,206.5,155.6z"/>
			</g>
		</g>
		<g>
			<g>
				<path class="st25" d="M210.1,160.1H210c0,0-0.1,0-0.1-0.1c-0.1-0.1-0.1-0.1-0.1-0.2c0-0.1,0-0.2,0.1-0.2l0.1-0.1
					c0.1,0,0.3,0,0.3,0.1c0.1,0.1,0.1,0.1,0.1,0.2c0,0.1,0,0.2-0.1,0.2C210.3,160,210.2,160.1,210.1,160.1z"/>
			</g>
		</g>
	</g>
	<g>
		<g>
			<g>
				<path class="st25" d="M205.2,155.4c-0.1,0-0.2,0-0.2-0.1c-0.1-0.1-0.1-0.1-0.1-0.2V155c0,0,0-0.1,0.1-0.1c0.1-0.1,0.3-0.1,0.5,0
					c0.1,0.1,0.1,0.1,0.1,0.2c0,0.1,0,0.2-0.1,0.2C205.3,155.4,205.3,155.4,205.2,155.4z"/>
			</g>
		</g>
		<g>
			<g>
				<path class="st25" d="M207.2,160.7c-0.1-0.2,0-0.4,0.2-0.4l0,0c0.2-0.1,0.3,0,0.4,0.2l0,0c0.1,0.2,0,0.3-0.2,0.4l0,0h-0.1l0,0
					C207.4,160.9,207.3,160.8,207.2,160.7z M206.8,159.6c-0.1-0.2,0-0.4,0.2-0.4l0,0c0.2-0.1,0.4,0,0.4,0.2l0,0
					c0.1,0.2,0,0.3-0.2,0.4l0,0h-0.1l0,0C206.9,159.8,206.8,159.7,206.8,159.6z M206.3,158.5c-0.1-0.2,0-0.3,0.2-0.4l0,0
					c0.2-0.1,0.3,0,0.4,0.2l0,0c0.1,0.2,0,0.3-0.2,0.4l0,0h-0.1l0,0C206.5,158.7,206.3,158.6,206.3,158.5z M205.8,157.4
					c-0.1-0.2,0-0.3,0.2-0.4l0,0c0.2-0.1,0.3,0,0.4,0.2l0,0c0.1,0.2,0,0.3-0.2,0.4l0,0h-0.1l0,0C206,157.6,205.9,157.5,205.8,157.4z
					 M205.3,156.3c-0.1-0.2,0-0.3,0.2-0.4l0,0c0.2-0.1,0.3,0,0.4,0.2l0,0c0.1,0.2,0,0.3-0.2,0.4l0,0h-0.1l0,0
					C205.5,156.5,205.4,156.4,205.3,156.3z"/>
			</g>
		</g>
		<g>
			<g>
				<path class="st25" d="M208,162c-0.1,0-0.2,0-0.2-0.1c-0.1-0.1-0.1-0.1-0.1-0.2c0-0.1,0-0.2,0.1-0.2c0.1-0.1,0.3-0.1,0.5,0
					c0.1,0.1,0.1,0.1,0.1,0.2c0,0.1,0,0.2-0.1,0.2C208.2,162,208.1,162,208,162z"/>
			</g>
		</g>
	</g>
</g>
<g>
	<path class="st25" d="M166.2,153.4c-0.7-0.2-1.5-0.4-2.2-0.5c-0.2,0-0.3-0.1-0.4-0.3c-0.1-0.3-0.4-0.6-0.7-0.7
		c-0.4-0.2-0.9-0.4-1.3-0.6c-0.9-0.4-1.8-0.6-2.7-0.6c-0.3,0-0.6,0-0.9,0.1c0.1,0.2,0.2,0.3,0.3,0.4c0.8,1.3,1.5,2.6,1.9,4.1
		c0.2,0.6,0.2,1.3,0.2,1.9c0,0.5-0.2,0.8-0.7,1c-1,0.3-2.1,0.4-3.1,0c-0.8-0.3-1.5-0.7-2.2-1.4c0,0.2,0,0.3,0,0.5
		c0,0.8,0,1.7-0.4,2.5c-0.6,1.1-1.3,2-2.2,2.8c-0.3,0.3-0.6,0.6-0.7,1c0,0.1,0,0.3,0,0.4l4,2.5c0.4-1.3,1.1-2.3,2.2-3.2
		c0.1-0.1,0.2-0.2,0.2-0.4c0.1-0.7,0.2-1.3,0.4-2c0.1-0.5,0.4-1,0.9-1.2c0.7-0.4,1.3-0.1,1.4,0.7c0,0.5,0.2,0.8,0.5,1.2
		c0.1,0.1,0.2,0.2,0.2,0.2c0.3,0.1,0.6,0.1,0.9,0.1c0.1-0.7,0.2-1.4,0.2-2.2c0.1-0.6,0.3-0.9,0.9-1c0.6-0.1,1.3-0.3,1.9-0.6
		c1.4-0.6,2.3-1.6,2.6-3.1C167.5,154,167.3,153.6,166.2,153.4z M162.1,154.3c-0.2,0-0.4-0.2-0.4-0.4s0.2-0.4,0.4-0.4
		s0.4,0.2,0.4,0.4S162.3,154.3,162.1,154.3z"/>
	<path class="st25" d="M160.7,169.6c0.1-0.2,0.1-0.4,0.3-0.4c0.8-0.3,1.7-0.6,2.5-0.9c0.4-0.1,0.8-0.3,1-0.6s0.4-0.6,0.6-0.9
		c0.1-0.2,0.1-0.4,0-0.5s-0.2-0.2-0.3-0.3c-0.5-0.5-1-1.1-1.1-1.8c-0.1-0.4-0.4-0.7-0.7-1c-0.6-0.4-1.3-0.7-2.1-0.7
		c-0.3,0-0.5-0.1-0.7-0.3c-0.4-0.5-0.6-1-0.7-1.6c-0.1-0.4-0.3-0.5-0.6-0.3c-0.2,0.2-0.5,0.5-0.6,0.8c-0.4,0.7-0.4,1.5-0.4,2.3
		c0,0.1-0.1,0.3-0.2,0.4c-0.4,0.4-0.9,0.8-1.3,1.2c-0.4,0.6-0.7,1.2-0.9,1.8l5.2,3.3C160.7,169.9,160.7,169.7,160.7,169.6z
		 M162.4,164.4c0.2,0,0.4,0.2,0.4,0.4s-0.2,0.4-0.4,0.4s-0.4-0.2-0.4-0.4S162.2,164.4,162.4,164.4z"/>
	<path class="st25" d="M159.3,157.5c0.3-0.1,0.4-0.2,0.4-0.5c0-0.2,0-0.5,0-0.7c-0.3-2-1.3-3.7-2.4-5.4c-0.9,0.4-1.6,1-2.1,1.8
		c-0.5,0.9-0.6,1.9-0.8,3c0,0.1,0,0.2,0.1,0.2C155.7,157.5,157.5,158.1,159.3,157.5z"/>
</g>
<g>
	<path class="st21" d="M198.8,525.2L198.8,525.2c-3.6,0-6.6-2.9-6.6-6.6l0,0c0-3.6,2.9-6.6,6.6-6.6l0,0c3.6,0,6.6,2.9,6.6,6.6l0,0
		C205.4,522.3,202.5,525.2,198.8,525.2z"/>
	<g class="st22">
		<path class="st3" d="M201.3,515.2c0.5,0.5,0.9,1.1,0.9,1.8h-1c-0.1-0.5-0.3-0.9-0.7-1.2c-0.3-0.3-0.8-0.4-1.5-0.4
			c-0.8,0-1.4,0.3-1.9,0.8s-0.7,1.4-0.7,2.5c0,0.9,0.2,1.7,0.6,2.3c0.4,0.6,1.1,0.9,1.9,0.9c0.8,0,1.4-0.3,1.8-0.9
			c0.2-0.3,0.4-0.7,0.5-1.3h1c-0.1,0.8-0.4,1.5-0.9,2.1c-0.6,0.7-1.5,1-2.5,1c-0.9,0-1.7-0.3-2.3-0.8c-0.8-0.7-1.2-1.9-1.2-3.4
			c0-1.2,0.3-2.1,0.9-2.9c0.7-0.8,1.6-1.2,2.7-1.2C200,514.4,200.7,514.7,201.3,515.2z"/>
	</g>
</g>
<g>
	<path class="st21" d="M23.7,609.7L23.7,609.7c-3.6,0-6.6-2.9-6.6-6.6l0,0c0-3.6,2.9-6.6,6.6-6.6l0,0c3.6,0,6.6,2.9,6.6,6.6l0,0
		C30.3,606.8,27.4,609.7,23.7,609.7z"/>
	<g class="st22">
		<path class="st3" d="M26.2,599.7c0.5,0.5,0.9,1.1,0.9,1.8h-1c-0.1-0.5-0.3-0.9-0.7-1.2c-0.3-0.3-0.8-0.4-1.5-0.4
			c-0.8,0-1.4,0.3-1.9,0.8s-0.7,1.4-0.7,2.5c0,0.9,0.2,1.7,0.6,2.3c0.4,0.6,1.1,0.9,1.9,0.9c0.8,0,1.4-0.3,1.8-0.9
			c0.2-0.3,0.4-0.7,0.5-1.3h1c-0.1,0.8-0.4,1.5-0.9,2.1c-0.6,0.7-1.5,1-2.5,1c-0.9,0-1.7-0.3-2.3-0.8c-0.8-0.7-1.2-1.9-1.2-3.4
			c0-1.2,0.3-2.1,0.9-2.9c0.7-0.8,1.6-1.2,2.7-1.2C24.9,598.9,25.6,599.2,26.2,599.7z"/>
	</g>
</g>
<g>
	<path class="st21" d="M311.6,154.6L311.6,154.6c-3.6,0-6.6-2.9-6.6-6.6l0,0c0-3.6,2.9-6.6,6.6-6.6l0,0c3.6,0,6.6,2.9,6.6,6.6l0,0
		C318.2,151.7,315.3,154.6,311.6,154.6z"/>
	<g class="st22">
		<path class="st3" d="M311.1,144h1.1v7.9h-1.1V144z"/>
	</g>
</g>
</svg>
