<?xml version="1.0" encoding="utf-8"?>
<!-- Generator: Adobe Illustrator 22.1.0, SVG Export Plug-In . SVG Version: 6.00 Build 0)  -->
<svg version="1.1" id="Layer_1" xmlns="http://www.w3.org/2000/svg" xmlns:xlink="http://www.w3.org/1999/xlink" x="0px" y="0px"
	 viewBox="0 0 607.5 144.1" style="enable-background:new 0 0 607.5 144.1;" xml:space="preserve">
<style type="text/css">
	.st0{fill:#3BBEB5;}
</style>
<g>
	<path class="st0" d="M495.5,1.5H72.1c-39,0-70.6,31.6-70.6,70.6v0c0,39,31.6,70.6,70.6,70.6h393.4L495.5,1.5z M52.7,88.1l6.8-31.8
		c0.4-2.3,1.8-3.5,4.1-3.5h7.1c12.1,0,19.3,6.1,19.3,16.4c0,12.5-8.1,23-24.5,23H56C53.3,92.2,52.1,90.8,52.7,88.1z M66.3,86.8
		c11.7,0,17.2-7.7,17.2-16.7c0-7.4-4.9-11.8-13.4-11.8h-4.8l-6,28.5H66.3z M92.8,79.4c0-9.1,6.6-17.2,16.5-17.2
		c8,0,13.7,5.7,13.7,13.5c0,9.1-6.6,17.2-16.5,17.2C98.5,92.9,92.8,87.2,92.8,79.4z M117.5,75.9c0-5.2-3.6-8.9-8.4-8.9
		c-6.1,0-10.8,5.7-10.8,12.2c0,5.2,3.7,8.9,8.4,8.9C112.9,88.1,117.5,82.4,117.5,75.9z M131.1,89.3l-0.2-17.2
		c-0.1-4.6-1.5-5.8-4.1-6c-0.2,0-0.1-3.5,4-3.5c1.5,0,2.6,0.4,3.5,1.3c1.5,1.5,2.1,4.2,2.1,8.3l-0.2,13.6l8.3-16.9
		c1-2.1,2.2-2.5,4.1-2.5c2.3,0,3.6,1,3.8,3.3l1.3,16.1l10.8-23.3c0.1-0.1,3.9-0.2,4.1,2.8c0.1,0.9-0.2,1.7-1,3.3l-10.8,21.4
		c-1,2-2.3,2.4-4,2.4c-2.3,0-3.3-0.9-3.5-3.2l-1.8-15.8l-8.8,16.5c-1,1.9-2.1,2.4-4,2.4C132.2,92.5,131.1,91.4,131.1,89.3z
		 M189.9,62.2c6.3,0,9.9,4.1,9.9,9.7c0,2.1-0.8,5.4-1.8,8.8c-0.9,3-1.5,5.4-1.5,6.6c0,1.6,0.9,2.3,2.5,2.4c0.2,0-0.1,3-3.7,3
		c-3.2,0-4.8-1.8-4.8-4.7c0-1.7,0.7-4.3,1.5-7.5c0.9-2.9,1.5-5.6,1.5-7.1c0-3.7-2.1-6-5.8-6c-3.8,0-6.3,1.9-8.6,5.8l-3.5,16.3
		c-0.4,2.1-1.3,2.9-2.7,2.9h-0.7c-1.6,0-3-0.7-2.6-2.9l5.7-26.6c0.1-0.1,0.7-0.3,1.5-0.3c2,0,4,1,3.3,5
		C182.4,64.2,185.8,62.2,189.9,62.2z M204.7,85.4l6.9-32.2c0.4-2.1,1.2-2.9,2.7-2.9h0.7c1.6,0,3,0.7,2.6,2.9l-6.8,32.2
		c-0.7,3-0.1,4.2,2.6,4.4c0.1,0,0,2.9-3.8,2.9C205.1,92.7,203.7,89.9,204.7,85.4z M218.3,79.4c0-9.1,6.6-17.2,16.5-17.2
		c8,0,13.7,5.7,13.7,13.5c0,9.1-6.6,17.2-16.5,17.2C224,92.9,218.3,87.2,218.3,79.4z M243,75.9c0-5.2-3.6-8.9-8.4-8.9
		c-6.1,0-10.8,5.7-10.8,12.2c0,5.2,3.7,8.9,8.4,8.9C238.4,88.1,243,82.4,243,75.9z M263.5,92.9c-6.3,0-11.4-4.4-11.4-12.2
		c0-9.2,6.8-18.5,16.4-18.5c4.5,0,8.2,2.2,9.9,5.7c0.9-3.8,2.2-5.2,4.7-5.2c1.2,0,2.2,0.5,2.2,0.7l-4.7,22.1c-0.7,3-0.1,4.1,2.4,4.4
		c0.1,0,0,2.9-3.6,2.9c-3.8,0-5.3-2.3-4.9-6C271.9,90.7,267.9,92.9,263.5,92.9z M268.7,67c-6.7,0-10.8,6.8-10.8,13.1
		c0,4.9,3.2,7.8,7.1,7.8c5.4,0,9.9-4.4,11-9.8l1-4.6C275.9,69.6,273.2,67,268.7,67z M299.8,92.9c-6.3,0-11.8-4.5-11.8-12.8
		c0-9.1,6.3-17.9,15.7-17.9c4.6,0,8.4,2.1,10.4,5.7l3.1-14.6c0.4-2.1,1.2-2.9,2.7-2.9h0.7c1.6,0,3,0.7,2.6,2.9l-6.8,32.2
		c-0.7,3-0.1,4.1,2.4,4.4c0.1,0,0,2.9-3.6,2.9c-3.6,0-5.2-2.1-4.9-5.6C307.7,90.8,304.3,92.9,299.8,92.9z M304.1,67
		c-6.6,0-10.3,6.4-10.3,12.6c0,5.2,3.5,8.3,7.5,8.3c5,0,9.3-3.9,10.4-9.3l1-4.9C311.4,69.6,309.1,67,304.1,67z M333.8,89.3l7.1-33.2
		c0.5-2.3,1.8-3.6,3.8-3.6h1c1.6,0,2.4,0.7,3.3,2.5l13.4,27.7l5.8-27.3c0.4-1.9,1.2-2.9,3-2.9h0.7c1.7,0,2.6,1.1,2.1,3.1L367,89.1
		c-0.4,2.1-1.6,3.3-3.6,3.3h-0.5c-1.6,0-2.4-0.7-3.3-2.5l-13.9-28.7l-6,28.3c-0.4,1.9-1.2,2.9-3,2.9h-0.7
		C334.2,92.4,333.3,91.3,333.8,89.3z M375.4,79.4c0-9.1,6.6-17.2,16.5-17.2c8,0,13.7,5.7,13.7,13.5c0,9.1-6.6,17.2-16.5,17.2
		C381,92.9,375.4,87.2,375.4,79.4z M400.1,75.9c0-5.2-3.7-8.9-8.4-8.9c-6.1,0-10.8,5.7-10.8,12.2c0,5.2,3.6,8.9,8.4,8.9
		C395.5,88.1,400.1,82.4,400.1,75.9z M413.6,89.3l-0.2-17.2c-0.1-4.6-1.5-5.8-4.1-6c-0.2,0-0.1-3.5,4-3.5c1.5,0,2.6,0.4,3.5,1.3
		c1.5,1.5,2.1,4.2,2.1,8.3l-0.2,13.6L427,69c1-2.1,2.2-2.5,4.1-2.5c2.3,0,3.6,1,3.8,3.3l1.3,16.1L447,62.6c0.1-0.1,3.9-0.2,4.1,2.8
		c0.1,0.9-0.2,1.7-1,3.3l-10.8,21.4c-1,2-2.3,2.4-4,2.4c-2.3,0-3.3-0.9-3.5-3.2L430,73.6l-8.8,16.5c-1,1.9-2.1,2.4-4,2.4
		C414.8,92.5,413.7,91.4,413.6,89.3z"/>
</g>
<g>
	<path class="st0" d="M535.5,4.5c37.3,0,67.6,30.3,67.6,67.6c0,37.3-30.3,67.6-67.6,67.6H72.1c-37.3,0-67.6-30.3-67.6-67.6
		c0-37.3,30.3-67.6,67.6-67.6H535.5 M535.5,1.5H72.1c-39,0-70.6,31.6-70.6,70.6v0c0,39,31.6,70.6,70.6,70.6h463.4
		c39,0,70.6-31.6,70.6-70.6v0C606,33.1,574.4,1.5,535.5,1.5L535.5,1.5z"/>
</g>
<g>
	<g>
		<path class="st0" d="M527.8,110.4c-0.2,0-0.3,0-0.5,0c-1.4-0.3-2.2-1.6-2-2.9l13.1-66.4c0.3-1.4,1.6-2.2,2.9-2
			c1.4,0.3,2.2,1.6,2,2.9l-13.1,66.4C530,109.5,529,110.4,527.8,110.4z"/>
	</g>
	<g>
		<path class="st0" d="M527.8,110.4c-0.6,0-1.2-0.2-1.7-0.7c-1-0.9-1.1-2.5-0.2-3.5l24.3-26.6c0.9-1,2.5-1.1,3.5-0.2
			c1,0.9,1.1,2.5,0.2,3.5l-24.3,26.6C529.2,110.1,528.5,110.4,527.8,110.4z"/>
	</g>
	<g>
		<path class="st0" d="M527.8,110.4c-0.9,0-1.8-0.5-2.2-1.4L512,81.8c-0.6-1.2-0.1-2.7,1.1-3.4c1.2-0.6,2.7-0.1,3.4,1.1l13.6,27.2
			c0.6,1.2,0.1,2.7-1.1,3.4C528.6,110.3,528.2,110.4,527.8,110.4z"/>
	</g>
</g>
</svg>
