<?xml version="1.0" encoding="utf-8"?>
<!-- Generator: Adobe Illustrator 15.1.0, SVG Export Plug-In . SVG Version: 6.00 Build 0)  -->
<!DOCTYPE svg PUBLIC "-//W3C//DTD SVG 1.1//EN" "http://www.w3.org/Graphics/SVG/1.1/DTD/svg11.dtd">
<svg version="1.1" id="Layer_1" xmlns="http://www.w3.org/2000/svg" xmlns:xlink="http://www.w3.org/1999/xlink" x="0px" y="0px"
	 width="792px" height="612px" viewBox="0 0 792 612" enable-background="new 0 0 792 612" xml:space="preserve">
<g>
	<g>
		<polygon fill="#636565" points="170.68,165.394 170.678,166.223 157.373,158.54 151.812,155.329 151.814,154.5 		"/>
	</g>
	<g>
		<polygon fill="#636565" points="170.665,170.808 170.663,171.637 164.527,168.095 164.529,167.266 		"/>
	</g>
	<g>
		<polygon fill="#636565" points="170.65,176.223 170.647,177.052 164.512,173.509 164.514,172.68 		"/>
	</g>
	<g>
		<polygon fill="#636565" points="170.634,181.637 170.632,182.466 160.787,176.782 160.79,175.953 		"/>
	</g>
	<g>
		<polygon fill="#636565" points="170.619,187.052 170.617,187.881 164.481,184.338 164.483,183.509 		"/>
	</g>
	<g>
		<polygon fill="#636565" points="170.604,192.466 170.602,193.295 164.466,189.753 164.468,188.924 		"/>
	</g>
	<g>
		<polygon fill="#636565" points="170.589,197.874 170.586,198.703 157.281,191.021 157.283,190.191 		"/>
	</g>
	<g>
		<polygon fill="#636565" points="170.573,203.288 170.571,204.117 164.436,200.574 164.438,199.746 		"/>
	</g>
	<g>
		<polygon fill="#636565" points="170.558,208.703 170.556,209.532 164.42,205.989 164.422,205.16 		"/>
	</g>
	<g>
		<polygon fill="#636565" points="170.543,214.117 170.541,214.946 160.695,209.262 160.698,208.433 		"/>
	</g>
	<g>
		<polygon fill="#636565" points="170.512,224.946 170.51,225.775 164.375,222.233 164.377,221.404 		"/>
	</g>
	<g>
		<polygon fill="#636565" points="170.497,230.354 170.495,231.183 157.189,223.5 151.628,220.29 151.631,219.46 		"/>
	</g>
	<g>
		<polygon fill="#636565" points="170.527,219.532 170.525,220.361 164.39,216.818 164.392,215.989 		"/>
	</g>
	<g>
		<polygon fill="#636565" points="170.481,235.768 170.479,236.597 164.344,233.055 164.346,232.226 		"/>
	</g>
	<g>
		<polygon fill="#636565" points="170.466,241.183 170.464,242.012 164.329,238.469 164.331,237.64 		"/>
	</g>
	<g>
		<polygon fill="#636565" points="170.451,246.597 170.449,247.426 160.604,241.742 160.606,240.913 		"/>
	</g>
	<g>
		<polygon fill="#636565" points="170.436,252.012 170.434,252.841 164.298,249.298 164.3,248.469 		"/>
	</g>
	<g>
		<polygon fill="#636565" points="170.42,257.426 170.418,258.255 164.283,254.713 164.285,253.884 		"/>
	</g>
	<g>
		<polygon fill="#636565" points="170.405,262.841 170.403,263.663 157.098,255.98 157.1,255.158 		"/>
	</g>
	<g>
		<polygon fill="#636565" points="170.39,268.248 170.388,269.077 164.252,265.534 164.254,264.705 		"/>
	</g>
	<g>
		<polygon fill="#636565" points="170.375,273.663 170.373,274.492 164.237,270.949 164.239,270.12 		"/>
	</g>
	<g>
		<polygon fill="#636565" points="170.359,279.077 170.357,279.906 160.512,274.222 160.515,273.393 		"/>
	</g>
	<g>
		<polygon fill="#636565" points="170.329,289.906 170.327,290.735 164.191,287.193 164.193,286.364 		"/>
	</g>
	<g>
		<polygon fill="#636565" points="170.313,295.313 170.312,296.143 157.006,288.46 151.445,285.25 151.447,284.42 		"/>
	</g>
	<g>
		<polygon fill="#636565" points="170.344,284.492 170.342,285.321 164.207,281.778 164.208,280.949 		"/>
	</g>
	<g>
		<polygon fill="#636565" points="170.298,300.728 170.296,301.557 164.161,298.015 164.163,297.186 		"/>
	</g>
	<g>
		<polygon fill="#636565" points="170.283,306.143 170.281,306.972 164.146,303.429 164.147,302.6 		"/>
	</g>
	<g>
		<polygon fill="#636565" points="170.268,311.558 170.266,312.386 160.42,306.702 160.423,305.873 		"/>
	</g>
	<g>
		<polygon fill="#636565" points="170.252,316.972 170.25,317.801 164.115,314.259 164.117,313.429 		"/>
	</g>
	<g>
		<polygon fill="#636565" points="170.222,327.794 170.22,328.63 156.914,320.947 156.917,320.111 		"/>
	</g>
	<g>
		<polygon fill="#636565" points="170.237,322.387 170.235,323.216 164.1,319.673 164.102,318.844 		"/>
	</g>
	<g>
		<polygon fill="#636565" points="170.207,333.208 170.205,334.037 164.069,330.495 164.071,329.665 		"/>
	</g>
	<g>
		<polygon fill="#636565" points="170.176,344.037 170.174,344.866 160.329,339.182 160.331,338.353 		"/>
	</g>
	<g>
		<polygon fill="#636565" points="170.191,338.623 170.189,339.452 164.054,335.909 164.056,335.08 		"/>
	</g>
	<g>
		<polygon fill="#636565" points="170.146,354.859 170.144,355.695 164.008,352.152 164.01,351.316 		"/>
	</g>
	<g>
		<polygon fill="#636565" points="170.13,360.273 170.128,361.103 156.823,353.42 151.262,350.209 151.264,349.381 		"/>
	</g>
	<g>
		<polygon fill="#636565" points="170.161,349.451 170.159,350.281 164.023,346.738 164.025,345.909 		"/>
	</g>
	<g>
		<polygon fill="#636565" points="170.115,365.688 170.113,366.518 163.978,362.975 163.979,362.146 		"/>
	</g>
	<g>
		<polygon fill="#636565" points="170.1,371.103 170.098,371.932 163.962,368.389 163.964,367.561 		"/>
	</g>
	<g>
		<polygon fill="#636565" points="170.084,376.518 170.082,377.347 160.237,371.662 160.24,370.833 		"/>
	</g>
	<g>
		<polygon fill="#636565" points="170.069,381.932 170.067,382.761 163.932,379.219 163.934,378.39 		"/>
	</g>
	<g>
		<polygon fill="#636565" points="170.054,387.347 170.052,388.175 163.916,384.633 163.918,383.804 		"/>
	</g>
	<g>
		<polygon fill="#636565" points="170.039,392.761 170.037,393.59 156.731,385.908 156.733,385.078 		"/>
	</g>
	<g>
		<polygon fill="#636565" points="170.023,398.168 170.021,398.997 163.886,395.455 163.888,394.626 		"/>
	</g>
	<g>
		<polygon fill="#636565" points="169.993,408.997 169.991,409.826 160.146,404.142 160.148,403.312 		"/>
	</g>
	<g>
		<polygon fill="#636565" points="170.008,403.583 170.006,404.411 163.87,400.869 163.873,400.04 		"/>
	</g>
	<g>
		<polygon fill="#636565" points="169.947,425.233 169.945,426.062 156.64,418.381 151.079,415.17 151.081,414.34 		"/>
	</g>
	<g>
		<polygon fill="#636565" points="169.978,414.412 169.976,415.24 163.84,411.698 163.842,410.869 		"/>
	</g>
	<g>
		<polygon fill="#636565" points="169.962,419.826 169.96,420.655 163.825,417.113 163.827,416.283 		"/>
	</g>
</g>
<g opacity="0.6">
	<polygon fill="#735093" points="536.859,219.171 554.774,208.761 636.286,255.82 618.37,266.232 	"/>
</g>
<g opacity="0.6">
	<polygon fill="#735093" points="496.104,242.702 514.02,232.291 595.529,279.35 577.615,289.761 	"/>
</g>
<g opacity="0.6">
	<polygon fill="#513368" points="596.279,238.641 595.529,279.35 514.019,232.289 514.769,191.581 	"/>
</g>
<g opacity="0.6">
	<polygon fill="#6A4988" points="578.364,249.052 596.279,238.641 595.529,279.35 577.614,289.761 	"/>
</g>
<g opacity="0.6">
	<polygon fill="#6A4988" points="496.854,201.993 514.769,191.581 514.02,232.291 496.104,242.702 	"/>
</g>
<g opacity="0.6">
	<polygon fill="#735093" points="496.854,201.992 514.769,191.581 596.279,238.641 578.364,249.052 	"/>
</g>
<g opacity="0.6">
	<polygon fill="#513368" points="578.364,249.052 577.614,289.761 496.104,242.701 496.854,201.992 	"/>
</g>
<g opacity="0.6">
	<polygon fill="#735093" points="455.349,266.231 473.264,255.82 554.774,302.88 536.859,313.292 	"/>
</g>
<g opacity="0.6">
	<polygon fill="#513368" points="555.523,216.416 554.773,302.879 473.264,255.819 474.013,169.355 	"/>
</g>
<g opacity="0.6">
	<polygon fill="#6A4988" points="537.608,226.827 555.523,216.416 554.774,302.88 536.859,313.292 	"/>
</g>
<g opacity="0.6">
	<polygon fill="#6A4988" points="456.099,179.768 474.014,169.356 473.264,255.82 455.349,266.231 	"/>
</g>
<g opacity="0.6">
	<polygon fill="#735093" points="456.097,179.767 474.014,169.356 555.523,216.416 537.608,226.827 	"/>
</g>
<g opacity="0.6">
	<polygon fill="#513368" points="537.608,226.827 536.859,313.292 455.349,266.231 456.097,179.767 	"/>
</g>
<g opacity="0.6">
	<polygon fill="#735093" points="414.594,289.761 432.509,279.35 514.019,326.41 496.104,336.821 	"/>
</g>
<g opacity="0.6">
	<polygon fill="#513368" points="514.769,199.274 514.019,326.409 432.508,279.349 433.258,152.214 	"/>
</g>
<g opacity="0.6">
	<polygon fill="#6A4988" points="496.854,209.686 514.769,199.274 514.019,326.41 496.104,336.821 	"/>
</g>
<g opacity="0.6">
	<polygon fill="#6A4988" points="415.342,162.626 433.258,152.214 432.509,279.35 414.594,289.761 	"/>
</g>
<g opacity="0.6">
	<polygon fill="#735093" points="415.342,162.626 433.258,152.214 514.769,199.274 496.854,209.686 	"/>
</g>
<g opacity="0.6">
	<polygon fill="#513368" points="496.854,209.686 496.104,336.821 414.594,289.76 415.342,162.626 	"/>
</g>
<g opacity="0.6">
	<polygon fill="#735093" points="373.837,313.292 391.753,302.88 473.264,349.939 455.349,360.351 	"/>
</g>
<g opacity="0.6">
	<polygon fill="#513368" points="474.013,187.217 473.263,349.938 391.753,302.879 392.501,140.157 	"/>
</g>
<g opacity="0.6">
	<polygon fill="#6A4988" points="456.097,197.629 474.013,187.217 473.264,349.939 455.348,360.351 	"/>
</g>
<g opacity="0.6">
	<polygon fill="#6A4988" points="374.587,150.569 392.502,140.157 391.753,302.88 373.837,313.292 	"/>
</g>
<g opacity="0.6">
	<polygon fill="#735093" points="374.586,150.568 392.502,140.157 474.013,187.217 456.097,197.629 	"/>
</g>
<g opacity="0.6">
	<polygon fill="#513368" points="456.097,197.629 455.348,360.351 373.837,313.291 374.586,150.568 	"/>
</g>
<g opacity="0.6">
	<polygon fill="#735093" points="333.082,336.821 350.998,326.41 432.508,373.47 414.594,383.881 	"/>
</g>
<g opacity="0.6">
	<polygon fill="#513368" points="433.258,180.244 432.508,373.469 350.997,326.409 351.746,133.183 	"/>
</g>
<g opacity="0.6">
	<polygon fill="#6A4988" points="415.342,190.655 433.258,180.244 432.508,373.47 414.592,383.881 	"/>
</g>
<g opacity="0.6">
	<polygon fill="#6A4988" points="333.832,143.596 351.747,133.184 350.998,326.41 333.082,336.821 	"/>
</g>
<g opacity="0.6">
	<polygon fill="#735093" points="333.831,143.595 351.747,133.184 433.258,180.244 415.342,190.655 	"/>
</g>
<g opacity="0.6">
	<polygon fill="#513368" points="415.342,190.655 414.592,383.881 333.082,336.82 333.831,143.595 	"/>
</g>
<g opacity="0.6">
	<polygon fill="#735093" points="292.326,360.351 310.242,349.939 391.753,397 373.837,407.41 	"/>
</g>
<g opacity="0.6">
	<polygon fill="#513368" points="392.501,178.354 391.752,396.999 310.242,349.938 310.991,131.294 	"/>
</g>
<g opacity="0.6">
	<polygon fill="#6A4988" points="374.586,188.766 392.501,178.354 391.753,397 373.837,407.41 	"/>
</g>
<g opacity="0.6">
	<polygon fill="#6A4988" points="293.076,141.706 310.991,131.294 310.242,349.939 292.326,360.351 	"/>
</g>
<g opacity="0.6">
	<polygon fill="#735093" points="293.076,141.705 310.991,131.294 392.501,178.354 374.586,188.766 	"/>
</g>
<g opacity="0.6">
	<polygon fill="#513368" points="374.586,188.766 373.837,407.41 292.326,360.35 293.076,141.705 	"/>
</g>
<g opacity="0.6">
	<polygon fill="#735093" points="251.571,383.881 269.487,373.47 350.997,420.529 333.082,430.94 	"/>
</g>
<g opacity="0.6">
	<polygon fill="#513368" points="351.746,181.548 350.997,420.528 269.486,373.469 270.235,134.488 	"/>
</g>
<g opacity="0.6">
	<polygon fill="#6A4988" points="333.831,191.96 351.746,181.548 350.997,420.529 333.081,430.94 	"/>
</g>
<g opacity="0.6">
	<polygon fill="#6A4988" points="252.321,144.9 270.235,134.488 269.487,373.47 251.571,383.881 	"/>
</g>
<g opacity="0.6">
	<polygon fill="#735093" points="252.32,144.9 270.235,134.488 351.746,181.548 333.831,191.96 	"/>
</g>
<g opacity="0.6">
	<polygon fill="#513368" points="333.831,191.96 333.081,430.94 251.571,383.88 252.32,144.9 	"/>
</g>
<g opacity="0.6">
	<polygon fill="#735093" points="210.815,407.41 228.731,397 310.242,444.059 292.326,454.471 	"/>
</g>
<g opacity="0.6">
	<polygon fill="#513368" points="310.991,189.826 310.241,444.058 228.731,396.999 229.479,142.767 	"/>
</g>
<g opacity="0.6">
	<polygon fill="#6A4988" points="293.076,200.238 310.991,189.826 310.242,444.059 292.326,454.471 	"/>
</g>
<g opacity="0.6">
	<polygon fill="#6A4988" points="211.565,153.178 229.48,142.767 228.731,397 210.815,407.41 	"/>
</g>
<g opacity="0.6">
	<polygon fill="#735093" points="211.564,153.178 229.48,142.767 310.991,189.826 293.076,200.238 	"/>
</g>
<g opacity="0.6">
	<polygon fill="#513368" points="293.076,200.238 292.326,454.471 210.815,407.41 211.564,153.178 	"/>
</g>
<g opacity="0.6">
	<polygon fill="#735093" points="170.06,430.94 187.976,420.529 269.486,467.589 251.571,478 	"/>
</g>
<g opacity="0.6">
	<polygon fill="#513368" points="270.235,203.188 269.486,467.588 187.975,420.528 188.724,156.128 	"/>
</g>
<g opacity="0.6">
	<polygon fill="#6A4988" points="252.32,213.6 270.235,203.188 269.486,467.589 251.57,478 	"/>
</g>
<g opacity="0.6">
	<polygon fill="#6A4988" points="170.81,166.541 188.725,156.129 187.976,420.529 170.06,430.94 	"/>
</g>
<g opacity="0.6">
	<polygon fill="#735093" points="170.809,166.54 188.725,156.129 270.235,203.188 252.32,213.6 	"/>
</g>
<g opacity="0.6">
	<polygon fill="#513368" points="252.32,213.6 251.57,478 170.06,430.939 170.809,166.54 	"/>
</g>
<g>
	<g>
		<path d="M271.167,475.85c2.438-0.121,4.624,0.38,6.541,1.493c1.947,1.132,2.818,2.415,2.606,3.845
			c-0.205,1.435-1.601,2.901-4.187,4.395l-4.526,2.613l11,6.393l-1.833,1.059l-23.54-13.681l6.525-3.768
			C266.256,476.753,268.729,475.972,271.167,475.85z M277.755,481.438c0.197-1.076-0.459-2.057-1.976-2.938
			c-1.452-0.845-3.105-1.221-4.97-1.136c-1.853,0.085-3.727,0.667-5.604,1.751l-4.629,2.673l9.508,5.525l4.405-2.544
			C276.469,483.628,277.558,482.515,277.755,481.438"/>
	</g>
	<g>
		<path d="M295.881,483.311c2.444-0.021,4.516-0.52,6.214-1.5c1.979-1.143,3.146-2.705,3.494-4.692l1.872,1.087
			c-0.417,1.829-1.737,3.385-3.953,4.664c-2.248,1.298-4.885,1.924-7.901,1.872c-3.023-0.055-5.729-0.777-8.122-2.167
			c-2.271-1.32-3.472-2.802-3.596-4.449c-0.137-1.648,0.832-3.068,2.887-4.255c1.935-1.117,4.235-1.674,6.915-1.662
			c2.679,0.011,5.164,0.686,7.466,2.023l-12.297,7.101c0.241,0.177,0.488,0.343,0.761,0.501
			C291.347,482.836,293.438,483.326,295.881,483.311z M286.267,477.413c-0.146,1.003,0.352,2.002,1.485,3.016l10.107-5.836
			c-3.607-1.415-6.764-1.342-9.464,0.218C287.118,475.548,286.406,476.414,286.267,477.413"/>
	</g>
	<g>
		<path d="M312.526,473.7c2.438-0.019,4.515-0.519,6.207-1.496c1.979-1.143,3.146-2.706,3.495-4.693l1.872,1.088
			c-0.417,1.829-1.738,3.385-3.953,4.663c-2.248,1.298-4.879,1.921-7.902,1.873c-3.022-0.056-5.729-0.777-8.121-2.168
			c-2.271-1.319-3.472-2.801-3.596-4.449c-0.137-1.647,0.832-3.067,2.887-4.254c1.935-1.117,4.235-1.674,6.915-1.663
			c2.679,0.012,5.164,0.687,7.466,2.024l-12.297,7.1c0.24,0.177,0.488,0.344,0.761,0.502
			C307.985,473.229,310.076,473.719,312.526,473.7z M302.905,467.807c-0.14,0.999,0.351,2.002,1.485,3.016l10.107-5.836
			c-3.607-1.416-6.764-1.342-9.464,0.218C303.756,465.941,303.044,466.807,302.905,467.807"/>
	</g>
	<g>
		<path d="M320.883,454.178c1.021-0.59,2.825-0.926,5.416-1.003l0.577,1.46c-2.476,0.062-4.106,0.328-4.898,0.785
			c-1.558,0.899-1.753,2.725-0.559,5.475l9.737,5.658l-1.66,0.959l-15.503-9.01l1.66-0.959l4.079,2.371l0.07-0.041
			C318.747,457.101,319.108,455.202,320.883,454.178z"/>
	</g>
	<g>
		<path d="M408.281,418.412c2.445-0.022,4.516-0.52,6.215-1.5c1.979-1.144,3.146-2.706,3.494-4.693l1.871,1.088
			c-0.417,1.828-1.737,3.384-3.952,4.663c-2.248,1.298-4.886,1.925-7.902,1.873c-3.022-0.056-5.729-0.778-8.121-2.168
			c-2.271-1.319-3.472-2.802-3.596-4.449c-0.137-1.647,0.825-3.063,2.888-4.255c1.934-1.116,4.234-1.673,6.914-1.662
			s5.164,0.686,7.466,2.023l-12.297,7.101c0.241,0.177,0.488,0.343,0.761,0.502C403.747,417.937,405.838,418.427,408.281,418.412z
			 M398.668,412.514c-0.146,1.003,0.345,2.006,1.485,3.016l10.106-5.836c-3.607-1.415-6.764-1.341-9.464,0.218
			C399.519,410.648,398.807,411.515,398.668,412.514"/>
	</g>
	<g>
		<polygon points="402.325,425.461 386.822,416.451 388.5,415.481 404.004,424.491 		"/>
	</g>
	<g>
		<polygon points="384.415,417.841 393.505,430.905 392.503,431.484 369.57,426.412 371.262,425.435 390.209,429.626 
			382.787,418.781 		"/>
	</g>
	<g>
		<path d="M370.293,440.346c2.438-0.018,4.515-0.52,6.208-1.496c1.979-1.143,3.146-2.706,3.494-4.693l1.872,1.088
			c-0.417,1.829-1.731,3.381-3.946,4.66c-2.254,1.301-4.885,1.924-7.902,1.872c-3.029-0.052-5.736-0.773-8.128-2.164
			c-2.271-1.319-3.471-2.802-3.595-4.449c-0.137-1.647,0.831-3.067,2.887-4.254c1.935-1.117,4.236-1.674,6.915-1.663
			c2.68,0.012,5.164,0.687,7.466,2.024l-12.297,7.1c0.241,0.177,0.489,0.343,0.761,0.502
			C365.753,439.875,367.843,440.364,370.293,440.346z M360.673,434.452c-0.139,0.999,0.352,2.001,1.485,3.016l10.107-5.836
			c-3.606-1.416-6.764-1.342-9.464,0.218C361.523,432.587,360.812,433.453,360.673,434.452"/>
	</g>
	<g>
		<path d="M355.699,442.952l13.502,1.634l-2.171,1.253l-10.576-1.367c-3.536-0.458-5.953-0.619-7.258-0.483
			c-1.299,0.133-2.689,0.627-4.17,1.481l-3.205,1.851l11.285,6.559l-1.832,1.059l-23.54-13.681l6.072-3.506
			c2.541-1.467,5.034-2.274,7.478-2.414c2.445-0.141,4.593,0.331,6.458,1.415c2.722,1.582,3.124,3.562,1.214,5.935
			C350.115,442.451,352.355,442.54,355.699,442.952z M344.231,444.165c2.004-1.157,3.131-2.271,3.386-3.351
			c0.254-1.073-0.351-2.038-1.823-2.895c-1.452-0.844-3.118-1.189-4.996-1.039c-1.885,0.147-3.835,0.804-5.846,1.965l-3.869,2.234
			l9.216,5.355L344.231,444.165"/>
	</g>
	<g>
		<polygon points="378.785,411.78 380.463,410.811 383.299,412.459 381.621,413.428 		"/>
	</g>
	<g>
		<polygon points="432.178,390.263 441.236,403.346 440.444,403.803 423.058,399.262 430.797,409.373 430.051,409.805 
			407.564,404.475 409.2,403.53 427.173,407.799 419.428,397.625 420.334,397.102 437.72,401.709 430.524,391.218 		"/>
	</g>
</g>
<g>
	<g>
		<path d="M21.657,267.127c1.325,2.058,1.983,4.195,1.978,6.418c-0.006,2.245-0.682,3.641-2.026,4.18
			c-1.338,0.535-3.307,0.06-5.898-1.437l-4.527-2.613l-0.036,12.729l-1.833-1.058l0.077-27.234l6.532,3.771
			C18.419,263.324,20.333,265.076,21.657,267.127z M20.111,275.626c1.037-0.364,1.552-1.427,1.557-3.18
			c0.005-1.68-0.496-3.299-1.496-4.868c-1.006-1.566-2.447-2.898-4.325-3.981l-4.628-2.672l-0.031,10.998l4.412,2.547
			C17.579,275.611,19.081,275.994,20.111,275.626"/>
	</g>
	<g>
		<path d="M33.743,281.137c1.015,0.586,2.208,1.98,3.569,4.185l-0.969,1.241c-1.299-2.117-2.344-3.404-3.136-3.861
			c-1.558-0.899-3.229-0.145-5.014,2.257l-0.032,11.27l-1.667-0.962l0.051-17.931l1.667,0.962l-0.014,4.71l0.064,0.037
			C30.137,280.746,31.968,280.112,33.743,281.137z"/>
	</g>
	<g>
		<path d="M50.993,293.772c1.502,2.646,2.249,5.304,2.242,7.966c-0.008,2.657-0.767,4.43-2.279,5.335
			c-1.518,0.901-3.404,0.694-5.664-0.61c-2.267-1.309-4.154-3.28-5.668-5.933s-2.268-5.3-2.26-7.957
			c0.007-2.663,0.773-4.447,2.298-5.345c1.524-0.905,3.417-0.702,5.684,0.606C47.604,289.141,49.484,291.116,50.993,293.772z
			 M49.695,305.016c1.179-0.73,1.771-2.16,1.777-4.295c0.006-2.113-0.583-4.231-1.76-6.343c-1.177-2.113-2.637-3.669-4.374-4.672
			c-1.769-1.021-3.239-1.164-4.424-0.43s-1.784,2.174-1.79,4.316c-0.006,2.135,0.583,4.246,1.76,6.337
			c1.177,2.09,2.644,3.643,4.412,4.664C47.045,305.603,48.51,305.742,49.695,305.016"/>
	</g>
	<g>
		<path d="M69.196,304.055c1.298,2.381,1.943,4.863,1.936,7.438c-0.008,2.986-0.813,4.918-2.402,5.801
			c-1.595,0.887-3.71,0.562-6.347-0.961c-1.73-0.999-3.568-2.508-5.525-4.534l0.074-26.237l1.667,0.962l-0.034,11.871
			c1.666-0.985,3.545-0.878,5.64,0.332C66.24,299.901,67.904,301.678,69.196,304.055z M67.355,315.095
			c1.326-0.726,1.989-2.231,1.995-4.521c0.006-2.113-0.5-4.154-1.511-6.098c-1.018-1.954-2.299-3.377-3.844-4.27
			c-1.857-1.073-3.668-0.965-5.437,0.329l-0.031,10.858c1.288,1.303,2.564,2.318,3.829,3.049
			C64.367,315.604,66.036,315.825,67.355,315.095"/>
	</g>
	<g>
		<path d="M84.811,327.408c0.319,0.184,1.061,0.083,2.227-0.31l-0.005,1.592c-1.44,0.419-2.489,0.438-3.159,0.05
			c-0.383-0.221-0.65-0.522-0.797-0.894c-0.146-0.378-0.246-1.031-0.314-1.967c-1.645,0.527-3.275,0.328-4.891-0.604
			c-1.175-0.679-2.169-1.693-2.984-3.046c-0.808-1.356-1.214-2.662-1.21-3.925c0.006-1.944,0.795-3.031,2.369-3.247
			s3.823,0.437,6.741,1.952l0.006-2.282c0.007-2.443-1.145-4.328-3.45-5.658c-1.468-0.849-3.06-1.011-4.769-0.477l0.005-1.966
			c1.766-0.252,3.447,0.079,5.037,0.997c1.417,0.818,2.578,1.886,3.495,3.216c0.911,1.327,1.367,2.752,1.363,4.271l-0.032,11.174
			C84.441,326.894,84.562,327.265,84.811,327.408z M82.767,324.199l0.016-5.59c-0.193-0.12-0.383-0.234-0.571-0.343
			c-1.885-1.088-3.465-1.563-4.751-1.437c-1.407,0.143-2.12,0.958-2.124,2.433c-0.002,0.837,0.29,1.704,0.881,2.618
			c0.586,0.911,1.32,1.622,2.201,2.131C79.843,324.834,81.294,324.9,82.767,324.199"/>
	</g>
	<g>
		<path d="M101.732,322.841c1.292,2.377,1.937,4.859,1.93,7.434c-0.009,2.986-0.807,4.921-2.402,5.801
			c-1.595,0.887-3.711,0.562-6.341-0.957c-1.73-0.999-3.574-2.512-5.525-4.535l0.074-26.236l1.66,0.958l-0.033,11.871
			c1.666-0.985,3.545-0.878,5.64,0.331C98.77,318.684,100.434,320.46,101.732,322.841z M99.891,333.881
			c1.319-0.73,1.982-2.235,1.989-4.524c0.006-2.113-0.494-4.15-1.511-6.098c-1.011-1.95-2.293-3.374-3.844-4.27
			c-1.852-1.069-3.668-0.965-5.437,0.329l-0.031,10.858c1.288,1.303,2.564,2.318,3.828,3.048
			C96.903,334.39,98.565,334.607,99.891,333.881"/>
	</g>
	<g>
		<polygon points="107.446,314.728 109.125,315.697 109.116,318.977 107.437,318.007 		"/>
	</g>
	<g>
		<polygon points="107.369,341.962 107.42,324.03 109.099,325 109.049,342.932 		"/>
	</g>
	<g>
		<polygon points="115.65,319.465 115.573,346.699 113.895,345.729 113.971,318.495 		"/>
	</g>
	<g>
		<polygon points="120.503,322.267 122.182,323.235 122.172,326.515 120.494,325.546 		"/>
	</g>
	<g>
		<polygon points="120.426,349.501 120.477,331.569 122.155,332.539 122.105,350.47 		"/>
	</g>
	<g>
		<path d="M129.809,330.998l-0.017,5.949l4.374,2.525l-0.004,1.556l-4.374-2.525l-0.03,10.661c-0.005,1.716,0.113,2.916,0.354,3.592
			c0.241,0.683,0.891,1.323,1.958,1.938c0.811,0.469,1.763,0.732,2.85,0.771l-0.005,1.834c-1.1-0.025-2.173-0.344-3.227-0.952
			c-1.028-0.593-1.889-1.429-2.577-2.502c-0.688-1.072-1.03-2.203-1.026-3.399l0.036-12.905l-4.207-2.429l0.004-1.556l4.207,2.429
			l0.012-4.27l1.141-1.024L129.809,330.998z"/>
	</g>
	<g>
		<polygon points="149.769,348.482 138.015,368.85 136.311,367.865 141.805,358.354 135.27,340.11 137.013,341.117 142.641,356.904 
			148.064,347.498 		"/>
	</g>
	<g>
		<path d="M52.045,342.353c1.502,2.653,2.249,5.311,2.242,7.975c-0.007,2.648-0.767,4.429-2.279,5.334
			c-1.518,0.895-3.404,0.694-5.665-0.61c-2.267-1.309-4.154-3.287-5.668-5.933c-1.514-2.652-2.268-5.307-2.26-7.956
			c0.007-2.663,0.773-4.447,2.298-5.354c1.524-0.897,3.417-0.701,5.684,0.607C48.656,337.721,50.537,339.703,52.045,342.353z
			 M50.748,353.604c1.178-0.729,1.771-2.167,1.777-4.294c0.006-2.121-0.583-4.231-1.76-6.345c-1.177-2.112-2.637-3.668-4.374-4.671
			c-1.769-1.021-3.239-1.164-4.424-0.431c-1.191,0.73-1.784,2.175-1.79,4.316c-0.006,2.127,0.577,4.243,1.76,6.337
			c1.177,2.091,2.644,3.643,4.412,4.663C48.098,354.19,49.562,354.331,50.748,353.604"/>
	</g>
	<g>
		<path d="M64.516,337.567c0.824,0.476,1.774,1.282,2.845,2.407l-0.005,1.79c-1.116-1.1-2.054-1.869-2.813-2.308
			c-2.522-1.457-3.785-0.326-3.795,3.371l-0.006,2.223l3.02,1.744l-0.004,1.562l-3.02-1.743l-0.046,16.368l-1.66-0.958l0.046-16.369
			l-2.886-1.666l0.004-1.562l2.886,1.666l0.008-2.942c0.006-2.061,0.534-3.395,1.578-3.997
			C61.718,336.555,63.003,336.693,64.516,337.567z"/>
	</g>
	<g>
		<path d="M82.24,347.801c1.845,1.065,3.669,2.692,5.473,4.88l-0.006,2.318c-2.052-2.573-3.818-4.292-5.3-5.147
			c-1.424-0.822-2.619-1.013-3.573-0.571c-0.96,0.445-1.443,1.395-1.447,2.868c-0.003,1.05,0.275,2.158,0.841,3.33
			c0.56,1.176,1.745,2.669,3.537,4.482c1.798,1.824,3.105,3.226,3.927,4.222c0.829,1,1.529,2.162,2.101,3.476
			c0.572,1.323,0.855,2.766,0.851,4.343c-0.006,2.091-0.675,3.476-2.013,4.144c-1.338,0.675-2.969,0.453-4.891-0.656
			c-1.966-1.135-3.988-3.096-6.064-5.883l0.007-2.472c2.287,3.261,4.275,5.371,5.961,6.345c1.398,0.807,2.587,0.972,3.555,0.486
			c0.973-0.488,1.462-1.492,1.466-3.012c0.003-1.159-0.293-2.373-0.891-3.645c-0.598-1.278-1.808-2.852-3.638-4.717
			s-3.137-3.267-3.921-4.219c-0.784-0.945-1.452-2.036-1.999-3.271s-0.818-2.567-0.813-4.012c0.005-1.996,0.681-3.318,2.019-3.957
			C78.758,346.496,80.363,346.717,82.24,347.801z"/>
	</g>
	<g>
		<path d="M104.156,372.404c1.451,2.594,2.172,5.223,2.165,7.886c-0.007,2.627-0.761,4.411-2.272,5.36
			c-1.506,0.946-3.347,0.787-5.518-0.467c-1.507-0.87-3.051-2.209-4.625-4.015l-0.028,10.176l-1.667-0.962l0.077-27.117l1.666,0.962
			l-0.003,1.013c1.574,0.005,3.139,0.445,4.697,1.346C100.869,367.868,102.699,369.807,104.156,372.404z M102.75,383.718
			c1.153-0.687,1.739-2.127,1.745-4.32c0.006-2.187-0.602-4.345-1.817-6.473c-1.222-2.131-2.759-3.724-4.629-4.804
			c-1.335-0.771-2.702-1.119-4.103-1.047l-0.035,12.224c1.409,1.71,2.844,2.986,4.3,3.827
			C100.082,384.205,101.59,384.4,102.75,383.718"/>
	</g>
	<g>
		<path d="M120.161,395.799c0.312,0.181,1.055,0.072,2.226-0.316l-0.004,1.6c-1.44,0.418-2.495,0.433-3.159,0.05
			c-0.383-0.222-0.651-0.522-0.797-0.901c-0.146-0.371-0.253-1.028-0.32-1.971c-1.639,0.539-3.269,0.339-4.891-0.598
			c-1.175-0.678-2.17-1.693-2.978-3.042c-0.815-1.359-1.214-2.662-1.21-3.924c0.006-1.945,0.795-3.032,2.369-3.248
			s3.823,0.437,6.735,1.948l0.006-2.281c0.007-2.443-1.139-4.332-3.444-5.662c-1.475-0.853-3.066-1.007-4.776-0.473l0.006-1.967
			c1.766-0.259,3.447,0.072,5.043,0.994c1.411,0.815,2.578,1.894,3.489,3.22c0.917,1.331,1.367,2.752,1.363,4.27l-0.031,11.167
			C119.785,395.28,119.912,395.655,120.161,395.799z M118.111,392.587l0.016-5.598c-0.18-0.112-0.358-0.218-0.533-0.319
			c-1.897-1.095-3.494-1.58-4.783-1.449c-1.414,0.139-2.12,0.951-2.124,2.434c-0.002,0.836,0.289,1.703,0.875,2.614
			s1.319,1.621,2.2,2.13C115.193,393.225,116.638,393.287,118.111,392.587"/>
	</g>
	<g>
		<path d="M141.878,391.546c1.609,0.93,2.916,2.353,3.901,4.244c0.993,1.903,1.485,3.951,1.479,6.146l-0.031,11.013l-1.667-0.962
			l0.029-10.169c0.005-1.937-0.341-3.666-1.053-5.187c-0.706-1.524-1.7-2.65-2.99-3.395c-0.958-0.553-1.795-0.705-2.505-0.455
			c-0.717,0.248-1.455,0.895-2.212,1.928l-0.035,12.216l-1.679-0.97l0.029-10.213c0.006-1.988-0.36-3.729-1.098-5.228
			c-0.738-1.498-1.726-2.605-2.971-3.324c-1.813-1.047-3.381-0.673-4.709,1.124l-0.036,12.568l-1.66-0.959l0.051-17.932l1.66,0.959
			l-0.009,3.162l0.064,0.037c1.277-1.607,2.934-1.826,4.983-0.643c2.388,1.379,4.063,3.786,5.025,7.223
			C137.922,390.702,139.732,390.308,141.878,391.546z"/>
	</g>
</g>
<g>
	<defs>
		<polyline id="SVGID_1_" points="772.72,119.809 252.32,119.809 252.32,376.612 772.72,376.612 		"/>
	</defs>
	<clipPath id="SVGID_2_">
		<use xlink:href="#SVGID_1_"  overflow="visible"/>
	</clipPath>
	<g clip-path="url(#SVGID_2_)">
		<g>
			<path d="M634.204,256.688c-0.438,0-0.878-0.114-1.271-0.341c-128.204-74.018-225.036-81.585-283.691-74.901
				c-63.472,7.234-97.136,32.253-97.468,32.505c-1.119,0.846-2.713,0.628-3.561-0.49c-0.848-1.118-0.63-2.711,0.487-3.56
				c1.393-1.058,34.854-26,99.576-33.462c37.895-4.367,78.646-1.744,121.13,7.799c52.612,11.82,108.054,34.352,164.797,66.972
				l109.996-63.506c1.211-0.702,2.77-0.286,3.472,0.931c0.702,1.216,0.285,2.771-0.931,3.472l-111.266,64.239
				C635.082,256.574,634.643,256.688,634.204,256.688z"/>
		</g>
		<g>
			<g>
				<polygon points="739.465,178.759 771.203,175.699 739.632,209.41 745.221,190.791 				"/>
			</g>
		</g>
	</g>
</g>
</svg>
